<?xml version="1.0" encoding="utf-8"?>
<!-- Generator: Adobe Illustrator 27.5.0, SVG Export Plug-In . SVG Version: 6.00 Build 0)  -->
<svg version="1.1" xmlns="http://www.w3.org/2000/svg" xmlns:xlink="http://www.w3.org/1999/xlink" x="0px" y="0px"
	 viewBox="0 0 500 500" style="enable-background:new 0 0 500 500;" xml:space="preserve">
<g id="BACKGROUND">
	<rect id="XMLID_62_" style="fill:#FFFFFF;" width="500" height="500"/>
</g>
<g id="OBJECTS">
	<g>
		
			<ellipse id="XMLID_415_" transform="matrix(0.7071 -0.7071 0.7071 0.7071 -78.846 225.6568)" style="fill:#F0F7FF;" cx="232.969" cy="208.004" rx="151.325" ry="151.325"/>
		
			<circle id="XMLID_196_" style="fill:none;stroke:#F0F7FF;stroke-width:1.8649;stroke-miterlimit:10;" cx="426.574" cy="359.167" r="29.126"/>
		
			<circle id="XMLID_227_" style="fill:none;stroke:#F0F7FF;stroke-width:1.8649;stroke-miterlimit:10;" cx="101.467" cy="341.876" r="18.316"/>
		
			<line id="XMLID_206_" style="fill:none;stroke:#F0F7FF;stroke-width:1.7783;stroke-linecap:round;stroke-linejoin:round;stroke-miterlimit:10;" x1="30.885" y1="439.751" x2="379.354" y2="439.751"/>
		
			<line id="XMLID_200_" style="fill:none;stroke:#F0F7FF;stroke-width:1.7783;stroke-linecap:round;stroke-linejoin:round;stroke-miterlimit:10;" x1="272.96" y1="426.268" x2="334.128" y2="426.268"/>
		<g id="XMLID_102_">
			<g>
				<path style="fill:none;stroke:#CFDBE5;stroke-width:1.0176;stroke-linecap:round;stroke-linejoin:round;" d="M399.142,157.789
					c0,0-2.015,0.987-5.544,2.545"/>
				
					<path style="fill:none;stroke:#CFDBE5;stroke-width:1.0176;stroke-linecap:round;stroke-linejoin:round;stroke-dasharray:12.2771,12.2771;" d="
					M382.26,165.04c-15.895,6.207-40.517,14.241-62.744,14.859c-36.572,1.018-51.901-46.721-8.083-55.46
					c43.818-8.739,52.34,80.558-87.546,121.688C90.529,285.337,57.485,202.081,87.314,125.013"/>
				<path style="fill:none;stroke:#CFDBE5;stroke-width:1.0176;stroke-linecap:round;stroke-linejoin:round;" d="M89.636,119.323
					c0.799-1.862,1.635-3.719,2.506-5.568"/>
			</g>
		</g>
		<ellipse id="XMLID_92_" style="fill:#F0F7FF;" cx="195.26" cy="425.422" rx="66.314" ry="8.282"/>
		<path id="XMLID_343_" style="opacity:0.4;fill:#DAE7F2;" d="M269.198,293.201l-4.252-6.465l3.97-1.298
			c-0.457-0.588-1.144-0.952-1.888-1l-5.145-0.334l0.003,0.008l-7.094-1.605l-0.008,0.034l-19.684-9.448l-14.529-11.008
			c1.353-1.786,2.22-3.493,2.191-4.687c-0.026-1.031-1.692-2.815-4.188-4.811c0.025-2.872-1.042-6.195-3.947-10.681
			c-7.553-11.665,2.516-14.338-3.012-21.33c-5.528-6.992-5.833-12.222-5.833-12.222c0.029-0.57,0.029-1.096,0-1.652
			c-0.013-0.343-0.029-0.67-0.053-0.99c-0.002-0.046-0.004-0.083-0.006-0.107c-1.169-14.692-16.359-14.975-22.528-11.876
			c-0.222,0.111-0.437,0.215-0.656,0.321c-6.29,3.025-14.576,5.425-14.596,12.1c-3.235,5.981-6.009,7.076-0.83,14.99
			c1.357,2.074,2.268,4.044,2.808,5.919c0.007,0.679,0.008,1.368-0.006,2.083c-0.132,7.163-9.198,8.018-11.391,19.166
			c-0.236,1.2-0.364,2.393-0.396,3.58c-0.002,0.027-0.006,0.057-0.007,0.084v0.001c-2.888,3.29-5.03,6.364-4.774,8.03
			c0.15,0.978,0.708,2.085,1.524,3.221c-3.819,6.801-9.558,17.013-10.052,18.166c-0.657,1.532-3.081,19.843-3.568,23.557h0
			l-1.829,9.814c-0.19,1.019,0.379,2.028,1.349,2.393l4.845,1.823c0.731,0.275,1.495-0.318,1.411-1.094l-0.368-3.381l1.731-1.112
			c0.537-0.345,0.732-1.036,0.453-1.611l-3.149-6.501l8.537-19.874l10.01-14.428c0.74,0.358,1.443,0.631,2.081,0.801
			c0.014,0.027,0.024,0.056,0.038,0.083c9.67,12.133,9.107,23.724,8.614,27.409l-1.305,3.69c-0.111,0.315-0.022,0.637,0.183,0.856
			l0.129,24.664l-20.341,57.074l-7.178,13.261c-0.577,1.065-0.442,2.269,0.16,3.178l-1.467,2.678
			c-0.399-0.042-0.815-0.013-1.166,0.19c-1.045,0.605-1.868,1.667-1.71,3.121c0.159,1.454,4.669,16.177,4.669,16.177
			c0.598,2.096,2.394,2.299,4.505,2.11l0,0.001l3.001-0.255l0.788-2.041c0.529-1.371-0.302-2.888-1.742-3.181l-1.332-0.271
			l-0.37-3.148l0.562,0.278c-0.201-0.39-0.418-0.711-0.645-0.983l-0.292-2.485c-0.011-0.138-0.041-0.272-0.056-0.409l0.24,0.112
			c-0.094-0.184-0.193-0.349-0.294-0.506c-0.09-0.593-0.212-1.18-0.398-1.751l-0.663-2.025l-0.352-0.439
			c0.005-0.014,0.016-0.021,0.021-0.035l2.649-5.283c0.645-0.141,1.239-0.485,1.684-1.002l42.377-49.274l2.574-19.714l4.22,7.96
			l5.758,10.86L230,407.117c0.555,1.451,1.827,2.474,3.318,2.744l0.692,6.258l-0.29,0.048c0,0-1.568,0.993-1.553,2.201
			c0.015,1.208,0.537,2.445,1.882,3.02s16.389,3.861,16.389,3.861c2.569,0.613,5.248-0.442,6.708-2.643l-8.261-3.844l0.751-0.214
			c-0.738-0.277-1.373-0.365-1.922-0.332l-3.776-1.757c-0.79-0.368-1.621-0.639-2.476-0.809l-1.189-0.236l-0.882-5.979
			c1.625-0.85,2.633-2.678,2.295-4.634c-2.574-14.864-9.846-56.935-9.846-57.858c0-1.067-16.793-37.962-19.158-42.048
			c0.072-0.008,0.115-0.018,0.118-0.029c0.065-0.259-0.422-2.058-0.712-3.088c-0.024-0.086-0.066-0.162-0.109-0.236
			c-4.34-17.372-0.518-23.851,2.46-29.111c6.545,4.044,15.21,9.391,16.26,9.894c1.461,0.7,18.7,3.733,23.052,4.491l4.455,1.057
			l5.381,5.199c1.071,0.799,2.395,1.182,3.728,1.079l1.474-0.114C269.199,294.009,269.425,293.546,269.198,293.201z"/>
		<g id="XMLID_93_">
			<polygon id="XMLID_99_" style="fill:#DFE9F2;" points="409.408,144.006 409.93,155.867 477.389,126.416 			"/>
			<polygon id="XMLID_100_" style="fill:#CFDBE5;" points="409.93,155.867 477.389,126.416 412.216,146.09 			"/>
			<polygon id="XMLID_97_" style="fill:#F0F7FF;" points="477.389,126.416 409.408,144.006 400.776,133.012 			"/>
			<polygon id="XMLID_98_" style="fill:#F0F7FF;" points="419.122,159.325 477.389,126.416 412.216,146.09 			"/>
		</g>
		<g id="XMLID_250_">
			<path id="XMLID_260_" style="fill:#FFFFFF;" d="M208.52,101.471h-64.589c-3.226,0-5.842-2.616-5.842-5.842V59.857
				c0-3.227,2.616-5.842,5.842-5.842h64.589c3.227,0,5.842,2.616,5.842,5.842v35.772C214.362,98.855,211.747,101.471,208.52,101.471
				z"/>
			<g id="XMLID_251_">
				<rect id="XMLID_259_" x="145.239" y="72.086" style="fill:#F0F7FF;" width="5.5" height="20.291"/>
				<rect id="XMLID_258_" x="153.307" y="74.409" style="fill:#F0F7FF;" width="5.5" height="17.968"/>
				<rect id="XMLID_257_" x="161.374" y="77.743" style="fill:#F0F7FF;" width="5.5" height="14.634"/>
				<rect id="XMLID_256_" x="169.441" y="74.409" style="fill:#F0F7FF;" width="5.501" height="17.968"/>
				<rect id="XMLID_255_" x="177.509" y="70.742" style="fill:#F0F7FF;" width="5.5" height="21.635"/>
				<rect id="XMLID_254_" x="185.576" y="66.097" style="fill:#F0F7FF;" width="5.5" height="26.28"/>
				<rect id="XMLID_253_" x="193.644" y="72.086" style="fill:#F0F7FF;" width="5.5" height="20.291"/>
				<rect id="XMLID_252_" x="201.711" y="75.753" style="fill:#F0F7FF;" width="5.5" height="16.624"/>
			</g>
		</g>
		<g id="XMLID_166_">
			<path id="XMLID_16_" style="fill:#F74F73;" d="M162.922,182.684h-43.561c-2.812,0-5.092-2.28-5.092-5.092V152.7
				c0-2.812,2.28-5.092,5.092-5.092h43.561c2.812,0,5.092,2.279,5.092,5.092v24.892
				C168.014,180.404,165.734,182.684,162.922,182.684z"/>
			<g id="XMLID_167_">
				<path id="XMLID_14_" style="fill:#FFFFFF;" d="M131.666,164.863c0,2.46-1.995,4.455-4.455,4.455
					c-2.461,0-4.455-1.995-4.455-4.455s1.995-4.455,4.455-4.455C129.671,160.408,131.666,162.403,131.666,164.863z"/>
				<circle id="XMLID_12_" style="fill:#FFFFFF;" cx="141.142" cy="164.863" r="4.455"/>
				<circle id="XMLID_11_" style="fill:#FFFFFF;" cx="155.073" cy="164.863" r="4.455"/>
			</g>
		</g>
		<g id="XMLID_5_">
			<path id="XMLID_10_" style="fill:#00CCBE;" d="M249.431,165.146H205.87c-2.812,0-5.092-2.28-5.092-5.092v-24.892
				c0-2.812,2.279-5.091,5.092-5.091h43.561c2.812,0,5.091,2.279,5.091,5.091v24.892
				C254.522,162.866,252.243,165.146,249.431,165.146z"/>
			<g id="XMLID_6_">
				<circle id="XMLID_9_" style="fill:#FFFFFF;" cx="213.719" cy="147.326" r="4.455"/>
				<path id="XMLID_8_" style="fill:#FFFFFF;" d="M232.105,147.326c0,2.46-1.995,4.455-4.455,4.455c-2.46,0-4.455-1.995-4.455-4.455
					s1.995-4.455,4.455-4.455C230.111,142.87,232.105,144.865,232.105,147.326z"/>
				<circle id="XMLID_7_" style="fill:#FFFFFF;" cx="241.581" cy="147.326" r="4.455"/>
			</g>
		</g>
		<g id="XMLID_156_">
			<g id="XMLID_164_">
				<path id="XMLID_165_" style="fill:#FFFFFF;" d="M330.316,72.43v33.485c0,3.019-2.448,5.467-5.467,5.467h-60.456
					c-3.019,0-5.467-2.448-5.467-5.467V72.43c0-3.019,2.447-5.467,5.467-5.467h60.456C327.869,66.964,330.316,69.411,330.316,72.43z
					"/>
			</g>
			<path id="XMLID_157_" style="fill:#F0F7FF;" d="M326.291,93.685v12.23c0,0.797-0.644,1.441-1.441,1.441h-60.456
				c-0.797,0-1.441-0.644-1.441-1.441V90.859c2.166-1.337,4.646-2.238,7.407-2.238c9.452,0,10.66,6.344,18.711,6.344
				c8.051,0,11.175-13.284,18.421-13.284c7.246,0,7.85,14.589,14.589,14.589C323.763,96.27,325.075,95.239,326.291,93.685z"/>
		</g>
		<path id="XMLID_4_" style="fill:#F74F73;" d="M84.336,365.469l14.269,24.716c1.272,2.203,4.452,2.203,5.723,0l14.27-24.716
			c1.272-2.203-0.318-4.956-2.862-4.956h-2.476c-1.825,0-3.304-1.479-3.304-3.304v-22.756c0-1.825-1.479-3.304-3.304-3.304H96.282
			c-1.825,0-3.304,1.479-3.304,3.304v22.756c0,1.825-1.479,3.304-3.304,3.304h-2.476C84.654,360.513,83.064,363.267,84.336,365.469z
			"/>
		<path id="XMLID_201_" style="fill:#00CCBE;" d="M443.39,336.077l-14.27-24.716c-1.272-2.203-4.452-2.203-5.723,0l-14.27,24.716
			c-1.272,2.203,0.318,4.957,2.862,4.957h2.475c1.825,0,3.304,1.479,3.304,3.304v22.756c0,1.825,1.479,3.304,3.304,3.304h10.371
			c1.825,0,3.304-1.479,3.304-3.304v-22.756c0-1.825,1.479-3.304,3.304-3.304h2.475C443.072,341.033,444.662,338.28,443.39,336.077z
			"/>
		<path id="XMLID_105_" style="fill:#FFB149;" d="M178.113,299.565l-1.076,4.748c-0.05,0.22,0.117,0.429,0.342,0.429h1.54
			c0.176,0,0.325-0.131,0.348-0.305l0.613-4.669c0.026-0.2-0.121-0.381-0.322-0.396l-1.077-0.079
			C178.308,299.28,178.151,299.396,178.113,299.565z"/>
		<path id="XMLID_247_" style="fill:#00CCBE;" d="M372.063,319.699l1.943,3.553c0.023,0.041,0.056,0.075,0.097,0.097l3.553,1.943
			c0.17,0.093,0.17,0.337,0,0.43l-3.553,1.943c-0.041,0.023-0.075,0.056-0.097,0.097l-1.943,3.553c-0.093,0.17-0.337,0.17-0.43,0
			l-1.943-3.553c-0.023-0.041-0.056-0.075-0.097-0.097l-3.553-1.943c-0.17-0.093-0.17-0.337,0-0.43l3.553-1.943
			c0.041-0.023,0.075-0.056,0.097-0.097l1.943-3.553C371.727,319.529,371.971,319.529,372.063,319.699z"/>
		<path id="XMLID_125_" style="fill:#00CCBE;" d="M54.757,145.01l2.121,3.878c0.025,0.045,0.061,0.082,0.106,0.106l3.878,2.121
			c0.185,0.101,0.185,0.368,0,0.469l-3.878,2.121c-0.045,0.025-0.082,0.061-0.106,0.106l-2.121,3.878
			c-0.101,0.185-0.368,0.185-0.469,0l-2.121-3.878c-0.024-0.045-0.061-0.082-0.106-0.106l-3.878-2.121
			c-0.185-0.101-0.185-0.368,0-0.469l3.878-2.121c0.045-0.025,0.082-0.061,0.106-0.106l2.121-3.878
			C54.39,144.824,54.656,144.824,54.757,145.01z"/>
		<path id="XMLID_197_" style="fill:#F74F73;" d="M347.698,60.279l1.946,3.559c0.022,0.041,0.056,0.075,0.098,0.097l3.559,1.946
			c0.17,0.093,0.17,0.337,0,0.43l-3.559,1.946c-0.041,0.022-0.075,0.056-0.098,0.097l-1.946,3.559c-0.093,0.17-0.337,0.17-0.43,0
			l-1.946-3.559c-0.023-0.041-0.056-0.075-0.098-0.097l-3.559-1.946c-0.17-0.093-0.17-0.337,0-0.43l3.559-1.946
			c0.041-0.022,0.075-0.056,0.098-0.097l1.946-3.559C347.361,60.109,347.605,60.109,347.698,60.279z"/>
		<path id="XMLID_198_" style="fill:#F0F7FF;" d="M114.558,62.415l2.608,4.768c0.03,0.055,0.076,0.1,0.131,0.131l4.768,2.608
			c0.228,0.125,0.228,0.452,0,0.577l-4.768,2.608c-0.055,0.03-0.1,0.075-0.131,0.131l-2.608,4.768c-0.125,0.228-0.452,0.228-0.577,0
			l-2.608-4.768c-0.03-0.055-0.075-0.101-0.131-0.131l-4.768-2.608c-0.228-0.125-0.228-0.452,0-0.577l4.768-2.608
			c0.055-0.03,0.101-0.076,0.131-0.131l2.608-4.768C114.106,62.187,114.433,62.187,114.558,62.415z"/>
		<path id="XMLID_202_" style="fill:#FFFFFF;" d="M230.465,186.964l2.608,4.768c0.03,0.055,0.076,0.1,0.131,0.131l4.768,2.608
			c0.228,0.125,0.228,0.452,0,0.577l-4.768,2.608c-0.055,0.03-0.1,0.076-0.131,0.131l-2.608,4.768c-0.125,0.228-0.452,0.228-0.577,0
			l-2.608-4.768c-0.03-0.055-0.076-0.101-0.131-0.131l-4.768-2.608c-0.228-0.125-0.228-0.452,0-0.577l4.768-2.608
			c0.055-0.03,0.1-0.076,0.131-0.131l2.608-4.768C230.013,186.736,230.34,186.736,230.465,186.964z"/>
		<g id="XMLID_208_">
			<g id="XMLID_207_">
				<g id="XMLID_91_">
					<g id="XMLID_89_">
						<path id="XMLID_26_" style="fill:#EDA6A6;" d="M200.991,267.896c0.953,0.528,21.965,13.63,23.638,14.432
							c1.674,0.802,24.047,4.664,24.047,4.664l0.183-4.382l-19.827-9.517l-22.87-17.326L200.991,267.896z"/>
						<g id="XMLID_76_">
							<path id="XMLID_75_" style="fill:#EDA6A6;" d="M247.68,286.818l4.456,1.057l5.381,5.199c1.071,0.799,2.396,1.182,3.728,1.079
								l1.474-0.114c0.412-0.032,0.639-0.494,0.412-0.839l-5.745-8.734l-8.662-1.96L247.68,286.818z"/>
							<path id="XMLID_27_" style="fill:#EDA6A6;" d="M255.815,284.104l5.145,0.334c0.743,0.048,1.43,0.412,1.888,1l-5.707,1.866
								L255.815,284.104z"/>
						</g>
					</g>
					<g id="XMLID_87_">
						<path id="XMLID_15_" style="fill:#EDA6A6;" d="M152.181,257.172c-0.487,0.975-12.701,22.515-13.432,24.221
							s-3.655,24.221-3.655,24.221h4.386l8.68-20.208l16.355-23.574L152.181,257.172z"/>
						<path id="XMLID_78_" style="fill:#EDA6A6;" d="M135.181,304.949l-1.829,9.814c-0.19,1.019,0.379,2.028,1.349,2.393
							l4.845,1.823c0.731,0.275,1.495-0.318,1.411-1.094l-1.382-12.69L135.181,304.949z"/>
						<path id="XMLID_80_" style="fill:#EDA6A6;" d="M139.384,304.784l3.389,6.996c0.278,0.574,0.084,1.266-0.453,1.611
							l-1.935,1.243L139.384,304.784z"/>
					</g>
					<path id="XMLID_61_" style="fill:#000061;" d="M204.68,262.466c-3.926,7.652-15.814,21.935-30.641,12.89
						c-14.854-9.071-20.805-18.65-18.815-28.762c1.989-10.112,10.214-10.888,10.333-17.386c0.159-8.156-1.295-13.585-1.773-20.309
						c-0.464-6.697,7.891-8.846,13.819-11.816c5.596-2.812,19.376-2.555,20.437,10.773c0.027,0.318,0.04,0.65,0.053,0.995
						c0.026,0.504,0.026,0.981,0,1.499c0,0,0.277,4.745,5.292,11.087c5.014,6.343-4.12,8.768,2.732,19.349
						C212.969,251.367,208.579,254.827,204.68,262.466z"/>
					<path id="XMLID_74_" style="fill:#000061;" d="M227.651,416.167c0,0-1.568,0.993-1.553,2.201
						c0.015,1.208,0.537,2.445,1.882,3.02c1.345,0.575,16.389,3.861,16.389,3.861c2.569,0.613,5.248-0.442,6.708-2.643l0,0
						l-13.209-6.147c-0.79-0.368-1.621-0.639-2.476-0.809l-2.09-0.415L227.651,416.167z"/>
					<path id="XMLID_73_" style="fill:#EDA6A6;" d="M233.255,408.991l1.027,6.967c0.579,1.805-6.122,1.814-6.314,0.405l-0.77-6.968
						L233.255,408.991z"/>
					<path id="XMLID_72_" style="fill:none;stroke:#F74F73;stroke-width:0.9286;stroke-miterlimit:10;" d="M234.945,418.704
						c0.564-0.959,1.933-2.463,4.653-1.44"/>
					<path id="XMLID_71_" style="fill:none;stroke:#F74F73;stroke-width:0.9286;stroke-miterlimit:10;" d="M239.001,419.847
						c0.612-0.956,1.977-2.272,4.566-1.298"/>
					<path id="XMLID_70_" style="fill:#000061;" d="M140.6,405.134c0,0-1.634-0.88-2.68-0.274c-1.045,0.605-1.868,1.667-1.71,3.121
						c0.159,1.454,4.669,16.177,4.669,16.177c0.725,2.54,3.206,2.301,5.876,1.953l-1.402-11.928
						c-0.067-0.869-0.238-1.726-0.509-2.554l-0.663-2.025L140.6,405.134z"/>
					<path id="XMLID_69_" style="fill:#EDA6A6;" d="M147.007,402.833l-3.157,6.295c-0.561,1.811-6.054-2.028-5.403-3.292
						l3.368-6.148L147.007,402.833z"/>
					<path id="XMLID_68_" style="fill:#000061;" d="M145.384,426.268l3.002-0.255l0.787-2.041c0.529-1.371-0.302-2.888-1.742-3.181
						l-3.045-0.618L145.384,426.268z"/>
					<path id="XMLID_67_" style="fill:#FFB149;" d="M206.364,304.533c0.841,0.561,19.405,41.291,19.405,42.412
						c0,0.923,7.272,42.993,9.846,57.858c0.465,2.684-1.602,5.135-4.326,5.135h-3.259c-1.819,0-3.45-1.122-4.1-2.821l-20.82-54.442
						l-14.632-27.598l-9.252-22.15L206.364,304.533z"/>
					<path id="XMLID_66_" style="fill:#FFB149;" d="M197.171,302.927l-6.611,50.642l-42.377,49.274
						c-0.727,0.845-1.852,1.234-2.946,1.018l-2.724-0.538c-2.045-0.404-3.113-2.674-2.121-4.508l27.62-51.028l-0.23-43.984
						L197.171,302.927z"/>
					<g id="XMLID_63_">
						<path id="XMLID_65_" style="fill:none;stroke:#F74F73;stroke-width:0.9286;stroke-miterlimit:10;" d="M141.122,411.828
							c1.062-0.332,3.086-0.527,4.415,2.056"/>
						<path id="XMLID_64_" style="fill:none;stroke:#F74F73;stroke-width:0.9286;stroke-miterlimit:10;" d="M142.036,415.547
							c1.096-0.298,2.991-0.357,4.256,2.103"/>
					</g>
					<polyline id="XMLID_3_" style="fill:none;stroke:#FFFFFF;stroke-width:0.3085;stroke-miterlimit:10;" points="205.999,310.808 
						221.617,347.219 232.105,400.742 					"/>
					<polyline id="XMLID_32_" style="fill:none;stroke:#FFFFFF;stroke-width:0.3085;stroke-miterlimit:10;" points="175.085,308.35 
						172.721,347.991 143.33,397.452 					"/>
					<polygon id="XMLID_28_" style="fill:#000061;" points="193.134,333.855 195.589,315.05 197.387,341.876 					"/>
					<path id="XMLID_17_" style="fill:#FFB149;" d="M187.89,243.453c-2.85,2.113-3.485,6.109-1.477,9.035
						c3.882,5.659,12.76,17.972,16.463,17.908c4.807-0.084,13.911-9.174,13.817-12.998c-0.095-3.824-22.64-17.956-27.083-15.118
						C188.954,242.699,188.385,243.087,187.89,243.453z"/>
					<path id="XMLID_13_" style="fill:#F74F73;" d="M163.855,241.052c0,0,4.329-5.856,19.351-4.838
						c15.023,1.018,26.634,16.136,27.788,26.959c1.153,10.822-12.122,11.391-4.872,39.243l-37.423-1.932
						c0,0,3.31-13.921-8.409-28.623C155.197,262.185,158.508,247.926,163.855,241.052z"/>
					<path id="XMLID_19_" style="fill:#FFB149;" d="M171.955,241.525c-2.478-2.539-6.522-2.63-9.151-0.246
						c-5.084,4.609-16.089,15.066-15.526,18.726c0.731,4.751,10.965,12.548,14.741,11.939c3.777-0.609,14.741-24.853,11.33-28.873
						C172.845,242.478,172.385,241.966,171.955,241.525z"/>
					<path id="XMLID_23_" style="fill:#000061;" d="M168.904,299.27l-1.305,3.69c-0.19,0.537,0.194,1.104,0.764,1.12
						c6.489,0.192,38.285,1.116,38.367,0.788c0.065-0.259-0.422-2.058-0.712-3.088c-0.121-0.43-0.502-0.733-0.948-0.754
						L168.904,299.27z"/>
					<g id="XMLID_79_">
						<g id="XMLID_77_">
							<path id="XMLID_29_" style="fill:#FFE9E9;" d="M198.685,276.821c-0.018,0.468-0.411,0.833-0.879,0.816
								c-0.468-0.018-0.833-0.411-0.816-0.879c0.017-0.468,0.411-0.833,0.879-0.816
								C198.337,275.959,198.702,276.353,198.685,276.821z"/>
							<path id="XMLID_30_" style="fill:#FFE9E9;" d="M198.685,267.571c-0.018,0.468-0.411,0.833-0.879,0.816
								c-0.468-0.018-0.833-0.411-0.816-0.879c0.017-0.468,0.411-0.833,0.879-0.816
								C198.337,266.709,198.702,267.103,198.685,267.571z"/>
						</g>
						<g id="XMLID_84_">
							<path id="XMLID_86_" style="fill:#FFE9E9;" d="M197.33,259.328c0.109,0.456-0.172,0.913-0.628,1.021
								s-0.913-0.172-1.021-0.628c-0.109-0.455,0.173-0.913,0.628-1.021C196.764,258.591,197.221,258.872,197.33,259.328z"/>
							<path id="XMLID_85_" style="fill:#FFE9E9;" d="M194.375,251.235c0.109,0.456-0.173,0.913-0.628,1.021
								c-0.455,0.109-0.913-0.173-1.021-0.628c-0.109-0.456,0.172-0.913,0.628-1.021
								C193.809,250.498,194.266,250.78,194.375,251.235z"/>
						</g>
					</g>
					<path id="XMLID_88_" style="fill:#FFE9E9;" d="M172.79,239.233c-0.473,0.17,16.081,7.797,19.31,8.589
						c3.229,0.792-3.777-9.868-5.909-10.599C184.059,236.492,178.211,237.284,172.79,239.233z"/>
					<g id="XMLID_24_">
						<path id="XMLID_34_" style="fill:#EDA6A6;" d="M172.879,238.014l-0.68-18.595l14.406,7.708v10.823
							c0,0.94-0.652,1.77-1.57,1.972C180.83,240.847,176.756,239.432,172.879,238.014z"/>
						<path id="XMLID_33_" style="fill:#EDA6A6;" d="M195.311,208.113c1.094,5.928,2.493,11.584,1.104,17.45l-0.762,3.217
							c-0.278,2.333-2.403,3.992-4.734,3.695l-1.282-0.163c-2.485-0.317-4.866-1.196-6.959-2.572l-10.322-6.784l-2.182-4.401
							c-1.02-1.648-1.561-3.548-1.561-5.486v-5.13c0-2.29,0.754-4.516,2.146-6.334l0,0c1.972-2.577,5.032-4.089,8.277-4.089h7.354
							c3.766,0,7.238,2.031,9.085,5.313l0,0c0.836,1.486,1.311,3.147,1.388,4.85L195.311,208.113z"/>
					</g>
					<path id="XMLID_25_" style="fill:#000061;" d="M198.094,211.284c0,0-0.729-2.593-7.228-2.818
						c-6.485-0.252-3.36,5.894-7.488,8.086c-4.128,2.193-5.925,4.939-3.976,6.557c2.028,3.102,5.708,9.745-0.392,11.217
						c-6.101,1.485-16.581,6.373-16.581,6.373c3.965-5.093,5.56-11.151,0.587-18.751c-4.973-7.6-1.863-8.26,1.271-14.592
						c3.134-6.332,7.389-7.303,13.317-10.274c5.596-2.812,19.451-0.166,20.437,10.773
						C198.067,208.174,198.08,210.939,198.094,211.284z"/>
					<path id="XMLID_31_" style="fill:#EDA6A6;" d="M182.307,220.973c1.522,2.085,1.872,4.42,0.784,5.214
						c-1.089,0.794-3.205-0.252-4.726-2.337c-1.522-2.085-1.873-4.42-0.784-5.214C178.67,217.842,180.786,218.888,182.307,220.973z"
						/>
					<path id="XMLID_82_" style="fill:#000061;" d="M174.384,240.726c-3.655,1.462-5.117-0.64-9.685,3.929
						c-4.569,4.569-12.868,12.262-12.647,7.319c0.221-4.943,8.101-17.918,14.394-19.928c6.294-2.01,15.904-1.797,15.904-1.797
						S182.638,237.04,174.384,240.726z"/>
					<polygon id="XMLID_90_" style="fill:#FFE9E9;" points="192.345,300.408 191.928,304.717 198.506,304.938 198.871,300.725 					
						"/>
				</g>
				<path id="XMLID_2_" style="fill:none;stroke:#FFFFFF;stroke-width:0.3085;stroke-miterlimit:10;" d="M173.044,249.878
					c0,0-2.177,11.415-8.73,20.253"/>
			</g>
			<g id="XMLID_106_">
				<path id="XMLID_155_" style="fill:#FFFFFF;" d="M426.574,197.536v100.809c0,1.985-1.611,3.595-3.595,3.595H259.41
					c-1.985,0-3.595-1.611-3.595-3.595V197.536c0-1.985,1.611-3.595,3.595-3.595h163.569
					C424.963,193.941,426.574,195.551,426.574,197.536z"/>
				<path id="XMLID_154_" style="fill:#FFB149;" d="M426.574,197.536v12.457h-170.76v-12.457c0-1.985,1.611-3.595,3.595-3.595
					h163.569C424.963,193.941,426.574,195.551,426.574,197.536z"/>
				<path id="XMLID_153_" style="fill:#00CCBE;" d="M283.45,230.829h-11.442c-1.869,0-3.384-1.515-3.384-3.384v0
					c0-1.869,1.515-3.384,3.384-3.384h11.442c1.869,0,3.384,1.515,3.384,3.384v0C286.834,229.314,285.319,230.829,283.45,230.829z"
					/>
				<path id="XMLID_152_" style="fill:#F74F73;" d="M283.45,242.666h-11.442c-1.869,0-3.384-1.515-3.384-3.384l0,0
					c0-1.869,1.515-3.384,3.384-3.384h11.442c1.869,0,3.384,1.515,3.384,3.384l0,0C286.834,241.151,285.319,242.666,283.45,242.666z
					"/>
				<g id="XMLID_138_">
					<rect id="XMLID_151_" x="274.882" y="287.529" style="fill:#F0F7FF;" width="5.692" height="11.427"/>
					<rect id="XMLID_150_" x="285.5" y="286.756" style="fill:#F0F7FF;" width="5.692" height="12.2"/>
					<rect id="XMLID_149_" x="296.118" y="283.417" style="fill:#F0F7FF;" width="5.692" height="15.538"/>
					<rect id="XMLID_1_" x="306.736" y="283.417" style="fill:#F0F7FF;" width="5.692" height="15.538"/>
					<rect id="XMLID_147_" x="317.354" y="283.417" style="fill:#F0F7FF;" width="5.692" height="15.538"/>
					<rect id="XMLID_146_" x="327.971" y="283.417" style="fill:#F0F7FF;" width="5.692" height="15.538"/>
					<rect id="XMLID_145_" x="338.589" y="277.371" style="fill:#F0F7FF;" width="5.692" height="21.584"/>
					<rect id="XMLID_144_" x="349.207" y="283.417" style="fill:#F0F7FF;" width="5.692" height="15.538"/>
					<rect id="XMLID_143_" x="359.825" y="280.448" style="fill:#F0F7FF;" width="5.692" height="18.507"/>
					<rect id="XMLID_142_" x="370.443" y="283.417" style="fill:#F0F7FF;" width="5.692" height="15.538"/>
					<rect id="XMLID_141_" x="381.061" y="287.529" style="fill:#F0F7FF;" width="5.692" height="11.427"/>
					<rect id="XMLID_140_" x="391.678" y="279.064" style="fill:#F0F7FF;" width="5.692" height="19.892"/>
					<rect id="XMLID_139_" x="402.296" y="287.529" style="fill:#F0F7FF;" width="5.692" height="11.427"/>
				</g>
				<circle id="XMLID_137_" style="fill:#FFFFFF;" cx="271.613" cy="201.967" r="3.269"/>
				<path id="XMLID_136_" style="fill:#FFFFFF;" d="M288.769,201.967c0,1.806-1.464,3.269-3.269,3.269
					c-1.806,0-3.269-1.464-3.269-3.269c0-1.806,1.464-3.269,3.269-3.269C287.306,198.697,288.769,200.161,288.769,201.967z"/>
				<circle id="XMLID_135_" style="fill:#F0F7FF;" cx="299.387" cy="201.967" r="3.269"/>
				<g id="XMLID_126_">
					
						<polyline id="XMLID_134_" style="fill:none;stroke:#00CCBE;stroke-width:0.8615;stroke-linecap:round;stroke-linejoin:round;stroke-miterlimit:10;" points="
						271.152,272 310.626,262.571 338.549,245.606 358.908,267.732 390.377,248.82 412.915,229.818 					"/>
					<g id="XMLID_127_">
						<path id="XMLID_133_" style="fill:#00CCBE;" d="M411.499,228.291l3.085-0.827c0.411-0.11,0.786,0.266,0.676,0.676
							l-0.827,3.085c-0.11,0.411-0.623,0.548-0.924,0.247l-2.258-2.258C410.951,228.914,411.089,228.401,411.499,228.291z"/>
						<path id="XMLID_132_" style="fill:#00CCBE;" d="M272.96,272c0,0.999-0.809,1.808-1.808,1.808c-0.999,0-1.808-0.81-1.808-1.808
							c0-0.998,0.809-1.808,1.808-1.808C272.15,270.193,272.96,271.002,272.96,272z"/>
						<path id="XMLID_131_" style="fill:#00CCBE;" d="M312.434,262.571c0,0.998-0.809,1.808-1.808,1.808
							c-0.999,0-1.808-0.81-1.808-1.808c0-0.999,0.809-1.808,1.808-1.808C311.624,260.763,312.434,261.573,312.434,262.571z"/>
						<circle id="XMLID_130_" style="fill:#00CCBE;" cx="338.549" cy="245.606" r="1.808"/>
						<path id="XMLID_129_" style="fill:#00CCBE;" d="M360.716,267.732c0,0.999-0.809,1.808-1.808,1.808
							c-0.998,0-1.808-0.809-1.808-1.808s0.81-1.808,1.808-1.808C359.907,265.924,360.716,266.733,360.716,267.732z"/>
						<path id="XMLID_128_" style="fill:#00CCBE;" d="M392.185,248.82c0,0.999-0.809,1.808-1.808,1.808
							c-0.998,0-1.808-0.809-1.808-1.808s0.809-1.808,1.808-1.808C391.376,247.012,392.185,247.821,392.185,248.82z"/>
					</g>
				</g>
				<g id="XMLID_107_">
					<circle id="XMLID_118_" style="fill:#F0F7FF;" cx="369.288" cy="219.027" r="1.883"/>
					<circle id="XMLID_112_" style="fill:#F0F7FF;" cx="384.215" cy="219.027" r="1.883"/>
					<path id="XMLID_109_" style="fill:#F0F7FF;" d="M401.024,219.027c0,1.04-0.843,1.883-1.883,1.883s-1.883-0.843-1.883-1.883
						c0-1.04,0.843-1.883,1.883-1.883S401.024,217.987,401.024,219.027z"/>
					<path id="XMLID_108_" style="fill:#F0F7FF;" d="M415.951,219.027c0,1.04-0.843,1.883-1.883,1.883
						c-1.04,0-1.883-0.843-1.883-1.883c0-1.04,0.843-1.883,1.883-1.883C415.108,217.144,415.951,217.987,415.951,219.027z"/>
				</g>
			</g>
		</g>
		<g id="XMLID_226_">
			<path id="XMLID_209_" style="fill:#F0F7FF;" d="M336.741,381.557L336.741,381.557c-1.893,0-3.427-1.534-3.427-3.427v-26.423
				c0-1.892,1.534-3.427,3.427-3.427l0,0c1.892,0,3.427,1.534,3.427,3.427v26.423C340.168,380.023,338.633,381.557,336.741,381.557z
				"/>
			<path id="XMLID_210_" style="fill:#F0F7FF;" d="M320.103,364.919L320.103,364.919c0-1.892,1.534-3.427,3.427-3.427h26.423
				c1.892,0,3.427,1.534,3.427,3.427l0,0c0,1.893-1.534,3.427-3.427,3.427H323.53C321.637,368.346,320.103,366.812,320.103,364.919z
				"/>
		</g>
		<g id="XMLID_234_">
			<path id="XMLID_236_" style="fill:#F0F7FF;" d="M392.689,102.361L392.689,102.361c-1.262,0-2.285-1.023-2.285-2.285v-17.62
				c0-1.262,1.023-2.285,2.285-2.285l0,0c1.262,0,2.285,1.023,2.285,2.285v17.62C394.974,101.338,393.951,102.361,392.689,102.361z"
				/>
			<path id="XMLID_235_" style="fill:#F0F7FF;" d="M381.594,91.266L381.594,91.266c0-1.262,1.023-2.285,2.285-2.285h17.62
				c1.262,0,2.285,1.023,2.285,2.285l0,0c0,1.262-1.023,2.285-2.285,2.285h-17.62C382.617,93.551,381.594,92.528,381.594,91.266z"/>
		</g>
	</g>
</g>
</svg>
