<?xml version="1.0" encoding="utf-8"?>
<!-- Generator: Adobe Illustrator 27.5.0, SVG Export Plug-In . SVG Version: 6.00 Build 0)  -->
<svg version="1.1" xmlns="http://www.w3.org/2000/svg" xmlns:xlink="http://www.w3.org/1999/xlink" x="0px" y="0px"
	 viewBox="0 0 500 500" style="enable-background:new 0 0 500 500;" xml:space="preserve">
<g id="BACKGROUND">
	<rect style="fill:#FFFFFF;" width="500" height="500"/>
	<path style="fill:#F3FAFF;" d="M155.439,79.598c-18.172,6.058-37.141,17.792-40.65,36.623
		c-4.388,23.552,17.498,45.512,14.999,69.339c-1.857,17.706-16.391,30.883-27.015,45.168c-13.195,17.743-21.219,40.1-18.452,62.038
		c2.287,18.127,11.594,34.587,21.913,49.665c7.161,10.464,15.191,20.793,26.134,27.197c10.896,6.377,23.799,8.335,36.402,9.089
		c20.639,1.235,41.45-0.439,61.625-4.959c29.787-6.673,58.852-19.579,89.349-18.262c26.764,1.156,53.625,13.266,79.522,6.412
		c4.448-1.177,8.835-2.954,12.316-5.964c4.049-3.502,6.589-8.412,8.705-13.329c15.044-34.952,11.142-79.861-16.716-105.782
		c-16.862-15.69-40.904-23.635-53.799-42.72c-15.689-23.22-9.565-54.367-15.831-81.68c-1.489-6.49-3.794-12.974-8.12-18.036
		c-5.268-6.164-12.964-9.612-20.427-12.786c-12.738-5.418-25.869-10.03-39.913-9.266c-9.477,0.516-17.713,2.836-27.319,1.923
		C209.447,71.542,183.381,70.283,155.439,79.598z"/>
</g>
<g id="OBJECTS">
	<g>
		
			<ellipse transform="matrix(0.4741 -0.8804 0.8804 0.4741 39.3467 362.5826)" style="fill:#41415B;" cx="323.21" cy="148.352" rx="31.185" ry="31.185"/>
		<circle style="fill:#F4F4F4;" cx="323.21" cy="148.352" r="27.594"/>
		<path d="M327.953,174.349c-14.791,2.748-29.008-6.857-32.049-21.518c0.032,0.193,0.057,0.385,0.092,0.577
			c2.784,14.984,17.187,24.873,32.171,22.089c14.984-2.784,24.873-17.187,22.089-32.171c-0.036-0.193-0.082-0.381-0.121-0.572
			C352.562,157.53,342.744,171.601,327.953,174.349z"/>
		<path d="M318.614,123.618c14.582-2.709,28.61,6.587,31.918,20.897c-0.057-0.401-0.118-0.802-0.192-1.203
			c-2.784-14.984-17.187-24.873-32.171-22.089c-14.984,2.784-24.873,17.187-22.089,32.171c0.075,0.402,0.162,0.798,0.253,1.192
			C294.28,140.041,304.033,126.327,318.614,123.618z"/>
		<g>
			<path style="fill:#DD3E4B;" d="M320.287,132.185L320.287,132.185c-0.509,0.092-1.001-0.249-1.094-0.759l-0.952-5.267
				c-0.092-0.509,0.249-1.001,0.759-1.093l0,0c0.509-0.092,1.001,0.249,1.094,0.759l0.953,5.267
				C321.137,131.601,320.796,132.093,320.287,132.185z"/>
			<path style="fill:#DD3E4B;" d="M327.488,172.01L327.488,172.01c-0.509,0.092-1.001-0.249-1.093-0.759l-0.952-5.267
				c-0.092-0.509,0.249-1.001,0.759-1.093l0,0c0.509-0.092,1.001,0.249,1.094,0.759l0.952,5.267
				C328.338,171.425,327.997,171.917,327.488,172.01z"/>
		</g>
		<g>
			<path style="fill:#DD3E4B;" d="M341.646,145.21L341.646,145.21c-0.092-0.509,0.249-1.001,0.758-1.094l5.267-0.952
				c0.509-0.092,1.001,0.249,1.094,0.759l0,0c0.092,0.509-0.249,1.001-0.759,1.094l-5.267,0.952
				C342.23,146.061,341.738,145.719,341.646,145.21z"/>
			<path style="fill:#DD3E4B;" d="M297.814,153.136L297.814,153.136c-0.092-0.509,0.249-1.001,0.759-1.094l5.267-0.952
				c0.509-0.092,1.001,0.249,1.094,0.759l0,0c0.092,0.509-0.249,1.001-0.759,1.093l-5.267,0.952
				C298.398,153.986,297.906,153.645,297.814,153.136z"/>
		</g>
		<g>
			<path style="fill:#DD3E4B;" d="M333.994,133.189L333.994,133.189c-0.425-0.295-0.532-0.884-0.237-1.31l3.051-4.398
				c0.295-0.425,0.884-0.532,1.31-0.237l0,0c0.425,0.295,0.532,0.884,0.237,1.31l-3.051,4.398
				C335.009,133.378,334.42,133.484,333.994,133.189z"/>
			<path style="fill:#DD3E4B;" d="M308.605,169.788L308.605,169.788c-0.425-0.295-0.532-0.884-0.237-1.31l3.051-4.398
				c0.295-0.425,0.884-0.532,1.31-0.237l0,0c0.425,0.295,0.532,0.884,0.237,1.31l-3.051,4.398
				C309.619,169.976,309.03,170.083,308.605,169.788z"/>
		</g>
		<g>
			<path style="fill:#DD3E4B;" d="M338.592,159.289L338.592,159.289c0.295-0.425,0.884-0.532,1.31-0.237l4.398,3.051
				c0.425,0.295,0.532,0.884,0.237,1.31l0,0c-0.295,0.425-0.884,0.532-1.31,0.237l-4.398-3.051
				C338.403,160.303,338.297,159.714,338.592,159.289z"/>
			<path style="fill:#DD3E4B;" d="M301.993,133.899L301.993,133.899c0.295-0.425,0.884-0.532,1.31-0.237l4.398,3.051
				c0.425,0.295,0.532,0.884,0.237,1.31l0,0c-0.295,0.425-0.884,0.532-1.31,0.237l-4.398-3.051
				C301.805,134.914,301.698,134.324,301.993,133.899z"/>
		</g>
		<path style="opacity:0.5;" d="M324.551,149.021L324.551,149.021c0.178,0.983-0.481,1.932-1.464,2.11l-10.36,1.873
			c-0.983,0.178-1.932-0.481-2.11-1.464l0,0c-0.178-0.983,0.481-1.932,1.464-2.11l10.36-1.873
			C323.424,147.38,324.374,148.039,324.551,149.021z"/>
		<path style="fill:#C93A4C;" d="M328.186,147.887L328.186,147.887c0.178,0.983-0.481,1.932-1.464,2.11l-15.47,2.797
			c-0.983,0.178-1.932-0.481-2.11-1.464l0,0c-0.178-0.983,0.481-1.932,1.464-2.11l15.47-2.797
			C327.059,146.246,328.008,146.904,328.186,147.887z"/>
		<path style="opacity:0.5;" d="M322.588,150.27L322.588,150.27c-0.624-0.498-0.728-1.416-0.23-2.04l9.456-11.862
			c0.498-0.624,1.416-0.728,2.04-0.23v0c0.624,0.498,0.728,1.416,0.23,2.04l-9.456,11.862
			C324.13,150.664,323.212,150.768,322.588,150.27z"/>
		<path style="fill:#DD3E4B;" d="M320.198,152.702L320.198,152.702c-0.624-0.498-0.728-1.416-0.23-2.04l12.043-15.107
			c0.498-0.624,1.416-0.728,2.04-0.23l0,0c0.624,0.498,0.728,1.416,0.23,2.04l-12.043,15.107
			C321.74,153.096,320.822,153.199,320.198,152.702z"/>
		<path style="opacity:0.5;" d="M326.367,148.518c0.262,1.446-0.699,2.831-2.145,3.092c-1.446,0.262-2.831-0.699-3.092-2.145
			c-0.261-1.446,0.699-2.831,2.145-3.092C324.721,146.111,326.106,147.071,326.367,148.518z"/>
		<path style="fill:#233354;" d="M326.244,148.238c0.262,1.446-0.699,2.831-2.145,3.092c-1.446,0.261-2.831-0.699-3.092-2.145
			c-0.261-1.446,0.699-2.831,2.145-3.092C324.598,145.831,325.982,146.792,326.244,148.238z"/>
		<path style="fill:#FFFFFF;" d="M325.145,148.437c0.152,0.839-0.406,1.643-1.245,1.795c-0.839,0.152-1.643-0.406-1.795-1.245
			c-0.152-0.839,0.406-1.643,1.245-1.795C324.19,147.04,324.993,147.597,325.145,148.437z"/>
	</g>
	<g>
		<ellipse style="opacity:0.3;fill:#DADAE0;" cx="233.808" cy="423.094" rx="90.906" ry="10.75"/>
		<g>
			<g>
				<path style="fill:#484867;" d="M304.334,155.066v251.63c0,10.17-8.24,18.42-18.41,18.42h-104.23
					c-10.17,0-18.42-8.25-18.42-18.42v-251.63c0-6.39,3.26-12.03,8.21-15.32c2.93-1.96,6.44-3.1,10.21-3.1h104.23
					C296.094,136.646,304.334,144.896,304.334,155.066z"/>
				<path style="fill:#FDFDFD;" d="M283.645,419.169h-99.672c-7.736,0-14.007-6.271-14.007-14.007V157.318
					c0-7.736,6.271-14.007,14.007-14.007h99.672c7.736,0,14.007,6.271,14.007,14.007v247.844
					C297.652,412.898,291.381,419.169,283.645,419.169z"/>
				<path style="fill:#484867;" d="M257.301,152.013h-46.984c-2.075,0-3.758-1.682-3.758-3.758v-8.006h54.499v8.006
					C261.059,150.331,259.376,152.013,257.301,152.013z"/>
				<g>
					<path style="opacity:0.5;fill:#D1D1E6;" d="M242.182,148.352h-22.328c-0.895,0-1.62-0.725-1.62-1.621l0,0
						c0-0.895,0.725-1.621,1.62-1.621h22.328c0.895,0,1.621,0.726,1.621,1.621l0,0C243.802,147.627,243.077,148.352,242.182,148.352
						z"/>
					<path style="opacity:0.5;fill:#D1D1E6;" d="M249.384,146.732c0,0.895-0.726,1.621-1.621,1.621s-1.621-0.725-1.621-1.621
						c0-0.895,0.726-1.621,1.621-1.621S249.384,145.837,249.384,146.732z"/>
				</g>
			</g>
			<g>
				<rect x="186.422" y="228.642" style="fill:#4C6ED4;" width="3.791" height="3.791"/>
				<rect x="190.213" y="228.642" style="fill:#4C6ED4;" width="3.791" height="3.791"/>
				<rect x="194.004" y="228.642" style="fill:#4C6ED4;" width="3.791" height="3.791"/>
				<rect x="197.795" y="228.642" style="fill:#4C6ED4;" width="3.791" height="3.791"/>
				<rect x="201.586" y="228.642" style="fill:#4C6ED4;" width="3.791" height="3.791"/>
				<rect x="205.376" y="228.642" style="fill:#4C6ED4;" width="3.791" height="3.791"/>
				<rect x="209.167" y="228.642" style="fill:#4C6ED4;" width="3.791" height="3.791"/>
				<rect x="216.749" y="228.642" style="fill:#4C6ED4;" width="3.791" height="3.791"/>
				<rect x="220.54" y="228.642" style="fill:#4C6ED4;" width="3.791" height="3.791"/>
				<rect x="224.331" y="228.642" style="fill:#4C6ED4;" width="3.791" height="3.791"/>
				<rect x="228.121" y="228.642" style="fill:#4C6ED4;" width="3.791" height="3.791"/>
				<rect x="239.494" y="228.642" style="fill:#4C6ED4;" width="3.791" height="3.791"/>
				<rect x="254.657" y="228.642" style="fill:#4C6ED4;" width="3.791" height="3.791"/>
				<rect x="258.448" y="228.642" style="fill:#4C6ED4;" width="3.791" height="3.791"/>
				<rect x="262.239" y="228.642" style="fill:#4C6ED4;" width="3.791" height="3.791"/>
				<rect x="266.03" y="228.642" style="fill:#4C6ED4;" width="3.791" height="3.791"/>
				<rect x="269.82" y="228.642" style="fill:#4C6ED4;" width="3.791" height="3.791"/>
				<rect x="273.611" y="228.642" style="fill:#4C6ED4;" width="3.791" height="3.791"/>
				<rect x="277.402" y="228.642" style="fill:#4C6ED4;" width="3.791" height="3.791"/>
				<rect x="186.422" y="232.433" style="fill:#4C6ED4;" width="3.791" height="3.791"/>
				<rect x="209.167" y="232.433" style="fill:#4C6ED4;" width="3.791" height="3.791"/>
				<rect x="228.121" y="232.433" style="fill:#4C6ED4;" width="3.791" height="3.791"/>
				<rect x="231.912" y="232.433" style="fill:#4C6ED4;" width="3.791" height="3.791"/>
				<rect x="239.494" y="232.433" style="fill:#4C6ED4;" width="3.791" height="3.791"/>
				<rect x="247.075" y="232.433" style="fill:#4C6ED4;" width="3.791" height="3.791"/>
				<rect x="254.657" y="232.433" style="fill:#4C6ED4;" width="3.791" height="3.791"/>
				<rect x="277.402" y="232.433" style="fill:#4C6ED4;" width="3.791" height="3.791"/>
				<rect x="186.422" y="236.223" style="fill:#4C6ED4;" width="3.791" height="3.791"/>
				<rect x="194.004" y="236.223" style="fill:#4C6ED4;" width="3.791" height="3.791"/>
				<rect x="197.795" y="236.223" style="fill:#4C6ED4;" width="3.791" height="3.791"/>
				<rect x="201.586" y="236.223" style="fill:#4C6ED4;" width="3.791" height="3.791"/>
				<rect x="209.167" y="236.223" style="fill:#4C6ED4;" width="3.791" height="3.791"/>
				<rect x="220.54" y="236.223" style="fill:#4C6ED4;" width="3.791" height="3.791"/>
				<rect x="228.121" y="236.223" style="fill:#4C6ED4;" width="3.791" height="3.791"/>
				<rect x="235.703" y="236.223" style="fill:#4C6ED4;" width="3.791" height="3.791"/>
				<rect x="239.494" y="236.223" style="fill:#4C6ED4;" width="3.791" height="3.791"/>
				<rect x="243.285" y="236.223" style="fill:#4C6ED4;" width="3.791" height="3.791"/>
				<rect x="247.075" y="236.223" style="fill:#4C6ED4;" width="3.791" height="3.791"/>
				<rect x="254.657" y="236.223" style="fill:#4C6ED4;" width="3.791" height="3.791"/>
				<rect x="262.239" y="236.223" style="fill:#4C6ED4;" width="3.791" height="3.791"/>
				<rect x="266.03" y="236.223" style="fill:#4C6ED4;" width="3.791" height="3.791"/>
				<rect x="269.82" y="236.223" style="fill:#4C6ED4;" width="3.791" height="3.791"/>
				<rect x="277.402" y="236.223" style="fill:#4C6ED4;" width="3.791" height="3.791"/>
				<rect x="186.422" y="240.014" style="fill:#4C6ED4;" width="3.791" height="3.791"/>
				<rect x="194.004" y="240.014" style="fill:#4C6ED4;" width="3.791" height="3.791"/>
				<rect x="197.795" y="240.014" style="fill:#4C6ED4;" width="3.791" height="3.791"/>
				<rect x="201.586" y="240.014" style="fill:#4C6ED4;" width="3.791" height="3.791"/>
				<rect x="209.167" y="240.014" style="fill:#4C6ED4;" width="3.791" height="3.791"/>
				<rect x="224.331" y="240.014" style="fill:#4C6ED4;" width="3.791" height="3.791"/>
				<rect x="228.121" y="240.014" style="fill:#4C6ED4;" width="3.791" height="3.791"/>
				<rect x="235.703" y="240.014" style="fill:#4C6ED4;" width="3.791" height="3.791"/>
				<rect x="239.494" y="240.014" style="fill:#4C6ED4;" width="3.791" height="3.791"/>
				<rect x="243.285" y="240.014" style="fill:#4C6ED4;" width="3.791" height="3.791"/>
				<rect x="247.075" y="240.014" style="fill:#4C6ED4;" width="3.791" height="3.791"/>
				<rect x="254.657" y="240.014" style="fill:#4C6ED4;" width="3.791" height="3.791"/>
				<rect x="262.239" y="240.014" style="fill:#4C6ED4;" width="3.791" height="3.791"/>
				<rect x="266.03" y="240.014" style="fill:#4C6ED4;" width="3.791" height="3.791"/>
				<rect x="269.82" y="240.014" style="fill:#4C6ED4;" width="3.791" height="3.791"/>
				<rect x="277.402" y="240.014" style="fill:#4C6ED4;" width="3.791" height="3.791"/>
				<rect x="186.422" y="243.805" style="fill:#4C6ED4;" width="3.791" height="3.791"/>
				<rect x="194.004" y="243.805" style="fill:#4C6ED4;" width="3.791" height="3.791"/>
				<rect x="197.795" y="243.805" style="fill:#4C6ED4;" width="3.791" height="3.791"/>
				<rect x="201.586" y="243.805" style="fill:#4C6ED4;" width="3.791" height="3.791"/>
				<rect x="209.167" y="243.805" style="fill:#4C6ED4;" width="3.791" height="3.791"/>
				<rect x="224.331" y="243.805" style="fill:#4C6ED4;" width="3.791" height="3.791"/>
				<rect x="228.121" y="243.805" style="fill:#4C6ED4;" width="3.791" height="3.791"/>
				<rect x="231.912" y="243.805" style="fill:#4C6ED4;" width="3.791" height="3.791"/>
				<rect x="235.703" y="243.805" style="fill:#4C6ED4;" width="3.791" height="3.791"/>
				<rect x="239.494" y="243.805" style="fill:#4C6ED4;" width="3.791" height="3.791"/>
				<rect x="247.075" y="243.805" style="fill:#4C6ED4;" width="3.791" height="3.791"/>
				<rect x="254.657" y="243.805" style="fill:#4C6ED4;" width="3.791" height="3.791"/>
				<rect x="262.239" y="243.805" style="fill:#4C6ED4;" width="3.791" height="3.791"/>
				<rect x="266.03" y="243.805" style="fill:#4C6ED4;" width="3.791" height="3.791"/>
				<rect x="269.82" y="243.805" style="fill:#4C6ED4;" width="3.791" height="3.791"/>
				<rect x="277.402" y="243.805" style="fill:#4C6ED4;" width="3.791" height="3.791"/>
				<rect x="186.422" y="247.596" style="fill:#4C6ED4;" width="3.791" height="3.791"/>
				<rect x="209.167" y="247.596" style="fill:#4C6ED4;" width="3.791" height="3.791"/>
				<rect x="220.54" y="247.596" style="fill:#4C6ED4;" width="3.791" height="3.791"/>
				<rect x="228.121" y="247.596" style="fill:#4C6ED4;" width="3.791" height="3.791"/>
				<rect x="235.703" y="247.596" style="fill:#4C6ED4;" width="3.791" height="3.791"/>
				<rect x="239.494" y="247.596" style="fill:#4C6ED4;" width="3.791" height="3.791"/>
				<rect x="247.075" y="247.596" style="fill:#4C6ED4;" width="3.791" height="3.791"/>
				<rect x="254.657" y="247.596" style="fill:#4C6ED4;" width="3.791" height="3.791"/>
				<rect x="277.402" y="247.596" style="fill:#4C6ED4;" width="3.791" height="3.791"/>
				<rect x="186.422" y="251.387" style="fill:#4C6ED4;" width="3.791" height="3.791"/>
				<rect x="190.213" y="251.387" style="fill:#4C6ED4;" width="3.791" height="3.791"/>
				<rect x="194.004" y="251.387" style="fill:#4C6ED4;" width="3.791" height="3.791"/>
				<rect x="197.795" y="251.387" style="fill:#4C6ED4;" width="3.791" height="3.791"/>
				<rect x="201.586" y="251.387" style="fill:#4C6ED4;" width="3.791" height="3.791"/>
				<rect x="205.376" y="251.387" style="fill:#4C6ED4;" width="3.791" height="3.791"/>
				<rect x="209.167" y="251.387" style="fill:#4C6ED4;" width="3.791" height="3.791"/>
				<rect x="216.749" y="251.387" style="fill:#4C6ED4;" width="3.791" height="3.791"/>
				<rect x="224.331" y="251.387" style="fill:#4C6ED4;" width="3.791" height="3.791"/>
				<rect x="231.912" y="251.387" style="fill:#4C6ED4;" width="3.791" height="3.791"/>
				<rect x="239.494" y="251.387" style="fill:#4C6ED4;" width="3.791" height="3.791"/>
				<rect x="247.075" y="251.387" style="fill:#4C6ED4;" width="3.791" height="3.791"/>
				<rect x="254.657" y="251.387" style="fill:#4C6ED4;" width="3.791" height="3.791"/>
				<rect x="258.448" y="251.387" style="fill:#4C6ED4;" width="3.791" height="3.791"/>
				<rect x="262.239" y="251.387" style="fill:#4C6ED4;" width="3.791" height="3.791"/>
				<rect x="266.03" y="251.387" style="fill:#4C6ED4;" width="3.791" height="3.791"/>
				<rect x="269.82" y="251.387" style="fill:#4C6ED4;" width="3.791" height="3.791"/>
				<rect x="273.611" y="251.387" style="fill:#4C6ED4;" width="3.791" height="3.791"/>
				<rect x="277.402" y="251.387" style="fill:#4C6ED4;" width="3.791" height="3.791"/>
				<rect x="216.749" y="255.178" style="fill:#4C6ED4;" width="3.791" height="3.791"/>
				<rect x="220.54" y="255.178" style="fill:#4C6ED4;" width="3.791" height="3.791"/>
				<rect x="231.912" y="255.178" style="fill:#4C6ED4;" width="3.791" height="3.791"/>
				<rect x="235.703" y="255.178" style="fill:#4C6ED4;" width="3.791" height="3.791"/>
				<rect x="239.494" y="255.178" style="fill:#4C6ED4;" width="3.791" height="3.791"/>
				<rect x="186.422" y="258.968" style="fill:#4C6ED4;" width="3.791" height="3.791"/>
				<rect x="190.213" y="258.968" style="fill:#4C6ED4;" width="3.791" height="3.791"/>
				<rect x="197.795" y="258.968" style="fill:#4C6ED4;" width="3.791" height="3.791"/>
				<rect x="201.586" y="258.968" style="fill:#4C6ED4;" width="3.791" height="3.791"/>
				<rect x="209.167" y="258.968" style="fill:#4C6ED4;" width="3.791" height="3.791"/>
				<rect x="220.54" y="258.968" style="fill:#4C6ED4;" width="3.791" height="3.791"/>
				<rect x="231.912" y="258.968" style="fill:#4C6ED4;" width="3.791" height="3.791"/>
				<rect x="239.494" y="258.968" style="fill:#4C6ED4;" width="3.791" height="3.791"/>
				<rect x="243.285" y="258.968" style="fill:#4C6ED4;" width="3.791" height="3.791"/>
				<rect x="254.657" y="258.968" style="fill:#4C6ED4;" width="3.791" height="3.791"/>
				<rect x="277.402" y="258.968" style="fill:#4C6ED4;" width="3.791" height="3.791"/>
				<rect x="190.213" y="262.759" style="fill:#4C6ED4;" width="3.791" height="3.791"/>
				<rect x="194.004" y="262.759" style="fill:#4C6ED4;" width="3.791" height="3.791"/>
				<rect x="205.376" y="262.759" style="fill:#4C6ED4;" width="3.791" height="3.791"/>
				<rect x="212.958" y="262.759" style="fill:#4C6ED4;" width="3.791" height="3.791"/>
				<rect x="216.749" y="262.759" style="fill:#4C6ED4;" width="3.791" height="3.791"/>
				<rect x="224.331" y="262.759" style="fill:#4C6ED4;" width="3.791" height="3.791"/>
				<rect x="239.494" y="262.759" style="fill:#4C6ED4;" width="3.791" height="3.791"/>
				<rect x="243.285" y="262.759" style="fill:#4C6ED4;" width="3.791" height="3.791"/>
				<rect x="250.866" y="262.759" style="fill:#4C6ED4;" width="3.791" height="3.791"/>
				<rect x="258.448" y="262.759" style="fill:#4C6ED4;" width="3.791" height="3.791"/>
				<rect x="262.239" y="262.759" style="fill:#4C6ED4;" width="3.791" height="3.791"/>
				<rect x="266.03" y="262.759" style="fill:#4C6ED4;" width="3.791" height="3.791"/>
				<rect x="269.82" y="262.759" style="fill:#4C6ED4;" width="3.791" height="3.791"/>
				<rect x="273.611" y="262.759" style="fill:#4C6ED4;" width="3.791" height="3.791"/>
				<rect x="186.422" y="266.55" style="fill:#4C6ED4;" width="3.791" height="3.791"/>
				<rect x="190.213" y="266.55" style="fill:#4C6ED4;" width="3.791" height="3.791"/>
				<rect x="197.795" y="266.55" style="fill:#4C6ED4;" width="3.791" height="3.791"/>
				<rect x="205.376" y="266.55" style="fill:#4C6ED4;" width="3.791" height="3.791"/>
				<rect x="209.167" y="266.55" style="fill:#4C6ED4;" width="3.791" height="3.791"/>
				<rect x="216.749" y="266.55" style="fill:#4C6ED4;" width="3.791" height="3.791"/>
				<rect x="220.54" y="266.55" style="fill:#4C6ED4;" width="3.791" height="3.791"/>
				<rect x="231.912" y="266.55" style="fill:#4C6ED4;" width="3.791" height="3.791"/>
				<rect x="235.703" y="266.55" style="fill:#4C6ED4;" width="3.791" height="3.791"/>
				<rect x="239.494" y="266.55" style="fill:#4C6ED4;" width="3.791" height="3.791"/>
				<rect x="243.285" y="266.55" style="fill:#4C6ED4;" width="3.791" height="3.791"/>
				<rect x="247.075" y="266.55" style="fill:#4C6ED4;" width="3.791" height="3.791"/>
				<rect x="254.657" y="266.55" style="fill:#4C6ED4;" width="3.791" height="3.791"/>
				<rect x="258.448" y="266.55" style="fill:#4C6ED4;" width="3.791" height="3.791"/>
				<rect x="266.03" y="266.55" style="fill:#4C6ED4;" width="3.791" height="3.791"/>
				<rect x="277.402" y="266.55" style="fill:#4C6ED4;" width="3.791" height="3.791"/>
				<rect x="190.213" y="270.341" style="fill:#4C6ED4;" width="3.791" height="3.791"/>
				<rect x="197.795" y="270.341" style="fill:#4C6ED4;" width="3.791" height="3.791"/>
				<rect x="201.586" y="270.341" style="fill:#4C6ED4;" width="3.791" height="3.791"/>
				<rect x="216.749" y="270.341" style="fill:#4C6ED4;" width="3.791" height="3.791"/>
				<rect x="239.494" y="270.341" style="fill:#4C6ED4;" width="3.791" height="3.791"/>
				<rect x="258.448" y="270.341" style="fill:#4C6ED4;" width="3.791" height="3.791"/>
				<rect x="266.03" y="270.341" style="fill:#4C6ED4;" width="3.791" height="3.791"/>
				<rect x="269.82" y="270.341" style="fill:#4C6ED4;" width="3.791" height="3.791"/>
				<rect x="273.611" y="270.341" style="fill:#4C6ED4;" width="3.791" height="3.791"/>
				<rect x="277.402" y="270.341" style="fill:#4C6ED4;" width="3.791" height="3.791"/>
				<rect x="194.004" y="274.132" style="fill:#4C6ED4;" width="3.791" height="3.791"/>
				<rect x="197.795" y="274.132" style="fill:#4C6ED4;" width="3.791" height="3.791"/>
				<rect x="205.376" y="274.132" style="fill:#4C6ED4;" width="3.791" height="3.791"/>
				<rect x="209.167" y="274.132" style="fill:#4C6ED4;" width="3.791" height="3.791"/>
				<rect x="212.958" y="274.132" style="fill:#4C6ED4;" width="3.791" height="3.791"/>
				<rect x="220.54" y="274.132" style="fill:#4C6ED4;" width="3.791" height="3.791"/>
				<rect x="224.331" y="274.132" style="fill:#4C6ED4;" width="3.791" height="3.791"/>
				<rect x="243.285" y="274.132" style="fill:#4C6ED4;" width="3.791" height="3.791"/>
				<rect x="247.075" y="274.132" style="fill:#4C6ED4;" width="3.791" height="3.791"/>
				<rect x="250.866" y="274.132" style="fill:#4C6ED4;" width="3.791" height="3.791"/>
				<rect x="254.657" y="274.132" style="fill:#4C6ED4;" width="3.791" height="3.791"/>
				<rect x="277.402" y="274.132" style="fill:#4C6ED4;" width="3.791" height="3.791"/>
				<rect x="186.422" y="277.922" style="fill:#4C6ED4;" width="3.791" height="3.791"/>
				<rect x="197.795" y="277.922" style="fill:#4C6ED4;" width="3.791" height="3.791"/>
				<rect x="212.958" y="277.922" style="fill:#4C6ED4;" width="3.791" height="3.791"/>
				<rect x="216.749" y="277.922" style="fill:#4C6ED4;" width="3.791" height="3.791"/>
				<rect x="224.331" y="277.922" style="fill:#4C6ED4;" width="3.791" height="3.791"/>
				<rect x="231.912" y="277.922" style="fill:#4C6ED4;" width="3.791" height="3.791"/>
				<rect x="239.494" y="277.922" style="fill:#4C6ED4;" width="3.791" height="3.791"/>
				<rect x="243.285" y="277.922" style="fill:#4C6ED4;" width="3.791" height="3.791"/>
				<rect x="247.075" y="277.922" style="fill:#4C6ED4;" width="3.791" height="3.791"/>
				<rect x="262.239" y="277.922" style="fill:#4C6ED4;" width="3.791" height="3.791"/>
				<rect x="273.611" y="277.922" style="fill:#4C6ED4;" width="3.791" height="3.791"/>
				<rect x="186.422" y="281.713" style="fill:#4C6ED4;" width="3.791" height="3.791"/>
				<rect x="190.213" y="281.713" style="fill:#4C6ED4;" width="3.791" height="3.791"/>
				<rect x="197.795" y="281.713" style="fill:#4C6ED4;" width="3.791" height="3.791"/>
				<rect x="201.586" y="281.713" style="fill:#4C6ED4;" width="3.791" height="3.791"/>
				<rect x="205.376" y="281.713" style="fill:#4C6ED4;" width="3.791" height="3.791"/>
				<rect x="209.167" y="281.713" style="fill:#4C6ED4;" width="3.791" height="3.791"/>
				<rect x="224.331" y="281.713" style="fill:#4C6ED4;" width="3.791" height="3.791"/>
				<rect x="239.494" y="281.713" style="fill:#4C6ED4;" width="3.791" height="3.791"/>
				<rect x="243.285" y="281.713" style="fill:#4C6ED4;" width="3.791" height="3.791"/>
				<rect x="250.866" y="281.713" style="fill:#4C6ED4;" width="3.791" height="3.791"/>
				<rect x="262.239" y="281.713" style="fill:#4C6ED4;" width="3.791" height="3.791"/>
				<rect x="266.03" y="281.713" style="fill:#4C6ED4;" width="3.791" height="3.791"/>
				<rect x="269.82" y="281.713" style="fill:#4C6ED4;" width="3.791" height="3.791"/>
				<rect x="273.611" y="281.713" style="fill:#4C6ED4;" width="3.791" height="3.791"/>
				<rect x="277.402" y="281.713" style="fill:#4C6ED4;" width="3.791" height="3.791"/>
				<rect x="186.422" y="285.504" style="fill:#4C6ED4;" width="3.791" height="3.791"/>
				<rect x="194.004" y="285.504" style="fill:#4C6ED4;" width="3.791" height="3.791"/>
				<rect x="197.795" y="285.504" style="fill:#4C6ED4;" width="3.791" height="3.791"/>
				<rect x="201.586" y="285.504" style="fill:#4C6ED4;" width="3.791" height="3.791"/>
				<rect x="205.376" y="285.504" style="fill:#4C6ED4;" width="3.791" height="3.791"/>
				<rect x="216.749" y="285.504" style="fill:#4C6ED4;" width="3.791" height="3.791"/>
				<rect x="220.54" y="285.504" style="fill:#4C6ED4;" width="3.791" height="3.791"/>
				<rect x="224.331" y="285.504" style="fill:#4C6ED4;" width="3.791" height="3.791"/>
				<rect x="231.912" y="285.504" style="fill:#4C6ED4;" width="3.791" height="3.791"/>
				<rect x="258.448" y="285.504" style="fill:#4C6ED4;" width="3.791" height="3.791"/>
				<rect x="262.239" y="285.504" style="fill:#4C6ED4;" width="3.791" height="3.791"/>
				<rect x="269.82" y="285.504" style="fill:#4C6ED4;" width="3.791" height="3.791"/>
				<rect x="277.402" y="285.504" style="fill:#4C6ED4;" width="3.791" height="3.791"/>
				<rect x="186.422" y="289.295" style="fill:#4C6ED4;" width="3.791" height="3.791"/>
				<rect x="194.004" y="289.295" style="fill:#4C6ED4;" width="3.791" height="3.791"/>
				<rect x="205.376" y="289.295" style="fill:#4C6ED4;" width="3.791" height="3.791"/>
				<rect x="209.167" y="289.295" style="fill:#4C6ED4;" width="3.791" height="3.791"/>
				<rect x="212.958" y="289.295" style="fill:#4C6ED4;" width="3.791" height="3.791"/>
				<rect x="228.121" y="289.295" style="fill:#4C6ED4;" width="3.791" height="3.791"/>
				<rect x="231.912" y="289.295" style="fill:#4C6ED4;" width="3.791" height="3.791"/>
				<rect x="235.703" y="289.295" style="fill:#4C6ED4;" width="3.791" height="3.791"/>
				<rect x="243.285" y="289.295" style="fill:#4C6ED4;" width="3.791" height="3.791"/>
				<rect x="247.075" y="289.295" style="fill:#4C6ED4;" width="3.791" height="3.791"/>
				<rect x="250.866" y="289.295" style="fill:#4C6ED4;" width="3.791" height="3.791"/>
				<rect x="254.657" y="289.295" style="fill:#4C6ED4;" width="3.791" height="3.791"/>
				<rect x="258.448" y="289.295" style="fill:#4C6ED4;" width="3.791" height="3.791"/>
				<rect x="262.239" y="289.295" style="fill:#4C6ED4;" width="3.791" height="3.791"/>
				<rect x="269.82" y="289.295" style="fill:#4C6ED4;" width="3.791" height="3.791"/>
				<rect x="273.611" y="289.295" style="fill:#4C6ED4;" width="3.791" height="3.791"/>
				<rect x="216.749" y="293.086" style="fill:#4C6ED4;" width="3.791" height="3.791"/>
				<rect x="224.331" y="293.086" style="fill:#4C6ED4;" width="3.791" height="3.791"/>
				<rect x="228.121" y="293.086" style="fill:#4C6ED4;" width="3.791" height="3.791"/>
				<rect x="235.703" y="293.086" style="fill:#4C6ED4;" width="3.791" height="3.791"/>
				<rect x="247.075" y="293.086" style="fill:#4C6ED4;" width="3.791" height="3.791"/>
				<rect x="262.239" y="293.086" style="fill:#4C6ED4;" width="3.791" height="3.791"/>
				<rect x="273.611" y="293.086" style="fill:#4C6ED4;" width="3.791" height="3.791"/>
				<rect x="186.422" y="296.877" style="fill:#4C6ED4;" width="3.791" height="3.791"/>
				<rect x="190.213" y="296.877" style="fill:#4C6ED4;" width="3.791" height="3.791"/>
				<rect x="194.004" y="296.877" style="fill:#4C6ED4;" width="3.791" height="3.791"/>
				<rect x="197.795" y="296.877" style="fill:#4C6ED4;" width="3.791" height="3.791"/>
				<rect x="201.586" y="296.877" style="fill:#4C6ED4;" width="3.791" height="3.791"/>
				<rect x="205.376" y="296.877" style="fill:#4C6ED4;" width="3.791" height="3.791"/>
				<rect x="209.167" y="296.877" style="fill:#4C6ED4;" width="3.791" height="3.791"/>
				<rect x="220.54" y="296.877" style="fill:#4C6ED4;" width="3.791" height="3.791"/>
				<rect x="224.331" y="296.877" style="fill:#4C6ED4;" width="3.791" height="3.791"/>
				<rect x="231.912" y="296.877" style="fill:#4C6ED4;" width="3.791" height="3.791"/>
				<rect x="235.703" y="296.877" style="fill:#4C6ED4;" width="3.791" height="3.791"/>
				<rect x="247.075" y="296.877" style="fill:#4C6ED4;" width="3.791" height="3.791"/>
				<rect x="254.657" y="296.877" style="fill:#4C6ED4;" width="3.791" height="3.791"/>
				<rect x="262.239" y="296.877" style="fill:#4C6ED4;" width="3.791" height="3.791"/>
				<rect x="266.03" y="296.877" style="fill:#4C6ED4;" width="3.791" height="3.791"/>
				<rect x="277.402" y="296.877" style="fill:#4C6ED4;" width="3.791" height="3.791"/>
				<rect x="186.422" y="300.667" style="fill:#4C6ED4;" width="3.791" height="3.791"/>
				<rect x="209.167" y="300.667" style="fill:#4C6ED4;" width="3.791" height="3.791"/>
				<rect x="228.121" y="300.667" style="fill:#4C6ED4;" width="3.791" height="3.791"/>
				<rect x="235.703" y="300.667" style="fill:#4C6ED4;" width="3.791" height="3.791"/>
				<rect x="243.285" y="300.667" style="fill:#4C6ED4;" width="3.791" height="3.791"/>
				<rect x="247.075" y="300.667" style="fill:#4C6ED4;" width="3.791" height="3.791"/>
				<rect x="262.239" y="300.667" style="fill:#4C6ED4;" width="3.791" height="3.791"/>
				<rect x="186.422" y="304.458" style="fill:#4C6ED4;" width="3.791" height="3.791"/>
				<rect x="194.004" y="304.458" style="fill:#4C6ED4;" width="3.791" height="3.791"/>
				<rect x="197.795" y="304.458" style="fill:#4C6ED4;" width="3.791" height="3.791"/>
				<rect x="201.586" y="304.458" style="fill:#4C6ED4;" width="3.791" height="3.791"/>
				<rect x="209.167" y="304.458" style="fill:#4C6ED4;" width="3.791" height="3.791"/>
				<rect x="216.749" y="304.458" style="fill:#4C6ED4;" width="3.791" height="3.791"/>
				<rect x="220.54" y="304.458" style="fill:#4C6ED4;" width="3.791" height="3.791"/>
				<rect x="224.331" y="304.458" style="fill:#4C6ED4;" width="3.791" height="3.791"/>
				<rect x="228.121" y="304.458" style="fill:#4C6ED4;" width="3.791" height="3.791"/>
				<rect x="235.703" y="304.458" style="fill:#4C6ED4;" width="3.791" height="3.791"/>
				<rect x="243.285" y="304.458" style="fill:#4C6ED4;" width="3.791" height="3.791"/>
				<rect x="247.075" y="304.458" style="fill:#4C6ED4;" width="3.791" height="3.791"/>
				<rect x="250.866" y="304.458" style="fill:#4C6ED4;" width="3.791" height="3.791"/>
				<rect x="254.657" y="304.458" style="fill:#4C6ED4;" width="3.791" height="3.791"/>
				<rect x="258.448" y="304.458" style="fill:#4C6ED4;" width="3.791" height="3.791"/>
				<rect x="262.239" y="304.458" style="fill:#4C6ED4;" width="3.791" height="3.791"/>
				<rect x="266.03" y="304.458" style="fill:#4C6ED4;" width="3.791" height="3.791"/>
				<rect x="273.611" y="304.458" style="fill:#4C6ED4;" width="3.791" height="3.791"/>
				<rect x="277.402" y="304.458" style="fill:#4C6ED4;" width="3.791" height="3.791"/>
				<rect x="186.422" y="308.249" style="fill:#4C6ED4;" width="3.791" height="3.791"/>
				<rect x="194.004" y="308.249" style="fill:#4C6ED4;" width="3.791" height="3.791"/>
				<rect x="197.795" y="308.249" style="fill:#4C6ED4;" width="3.791" height="3.791"/>
				<rect x="201.586" y="308.249" style="fill:#4C6ED4;" width="3.791" height="3.791"/>
				<rect x="209.167" y="308.249" style="fill:#4C6ED4;" width="3.791" height="3.791"/>
				<rect x="216.749" y="308.249" style="fill:#4C6ED4;" width="3.791" height="3.791"/>
				<rect x="231.912" y="308.249" style="fill:#4C6ED4;" width="3.791" height="3.791"/>
				<rect x="235.703" y="308.249" style="fill:#4C6ED4;" width="3.791" height="3.791"/>
				<rect x="239.494" y="308.249" style="fill:#4C6ED4;" width="3.791" height="3.791"/>
				<rect x="250.866" y="308.249" style="fill:#4C6ED4;" width="3.791" height="3.791"/>
				<rect x="254.657" y="308.249" style="fill:#4C6ED4;" width="3.791" height="3.791"/>
				<rect x="258.448" y="308.249" style="fill:#4C6ED4;" width="3.791" height="3.791"/>
				<rect x="266.03" y="308.249" style="fill:#4C6ED4;" width="3.791" height="3.791"/>
				<rect x="273.611" y="308.249" style="fill:#4C6ED4;" width="3.791" height="3.791"/>
				<rect x="277.402" y="308.249" style="fill:#4C6ED4;" width="3.791" height="3.791"/>
				<rect x="186.422" y="312.04" style="fill:#4C6ED4;" width="3.791" height="3.791"/>
				<rect x="194.004" y="312.04" style="fill:#4C6ED4;" width="3.791" height="3.791"/>
				<rect x="197.795" y="312.04" style="fill:#4C6ED4;" width="3.791" height="3.791"/>
				<rect x="201.586" y="312.04" style="fill:#4C6ED4;" width="3.791" height="3.791"/>
				<rect x="209.167" y="312.04" style="fill:#4C6ED4;" width="3.791" height="3.791"/>
				<rect x="220.54" y="312.04" style="fill:#4C6ED4;" width="3.791" height="3.791"/>
				<rect x="228.121" y="312.04" style="fill:#4C6ED4;" width="3.791" height="3.791"/>
				<rect x="235.703" y="312.04" style="fill:#4C6ED4;" width="3.791" height="3.791"/>
				<rect x="243.285" y="312.04" style="fill:#4C6ED4;" width="3.791" height="3.791"/>
				<rect x="250.866" y="312.04" style="fill:#4C6ED4;" width="3.791" height="3.791"/>
				<rect x="258.448" y="312.04" style="fill:#4C6ED4;" width="3.791" height="3.791"/>
				<rect x="262.239" y="312.04" style="fill:#4C6ED4;" width="3.791" height="3.791"/>
				<rect x="269.82" y="312.04" style="fill:#4C6ED4;" width="3.791" height="3.791"/>
				<rect x="273.611" y="312.04" style="fill:#4C6ED4;" width="3.791" height="3.791"/>
				<rect x="277.402" y="312.04" style="fill:#4C6ED4;" width="3.791" height="3.791"/>
				<rect x="186.422" y="315.831" style="fill:#4C6ED4;" width="3.791" height="3.791"/>
				<rect x="209.167" y="315.831" style="fill:#4C6ED4;" width="3.791" height="3.791"/>
				<rect x="216.749" y="315.831" style="fill:#4C6ED4;" width="3.791" height="3.791"/>
				<rect x="220.54" y="315.831" style="fill:#4C6ED4;" width="3.791" height="3.791"/>
				<rect x="224.331" y="315.831" style="fill:#4C6ED4;" width="3.791" height="3.791"/>
				<rect x="228.121" y="315.831" style="fill:#4C6ED4;" width="3.791" height="3.791"/>
				<rect x="231.912" y="315.831" style="fill:#4C6ED4;" width="3.791" height="3.791"/>
				<rect x="235.703" y="315.831" style="fill:#4C6ED4;" width="3.791" height="3.791"/>
				<rect x="243.285" y="315.831" style="fill:#4C6ED4;" width="3.791" height="3.791"/>
				<rect x="254.657" y="315.831" style="fill:#4C6ED4;" width="3.791" height="3.791"/>
				<rect x="258.448" y="315.831" style="fill:#4C6ED4;" width="3.791" height="3.791"/>
				<rect x="262.239" y="315.831" style="fill:#4C6ED4;" width="3.791" height="3.791"/>
				<rect x="269.82" y="315.831" style="fill:#4C6ED4;" width="3.791" height="3.791"/>
				<rect x="273.611" y="315.831" style="fill:#4C6ED4;" width="3.791" height="3.791"/>
				<rect x="277.402" y="315.831" style="fill:#4C6ED4;" width="3.791" height="3.791"/>
				<rect x="186.422" y="319.621" style="fill:#4C6ED4;" width="3.791" height="3.791"/>
				<rect x="190.213" y="319.621" style="fill:#4C6ED4;" width="3.791" height="3.791"/>
				<rect x="194.004" y="319.621" style="fill:#4C6ED4;" width="3.791" height="3.791"/>
				<rect x="197.795" y="319.621" style="fill:#4C6ED4;" width="3.791" height="3.791"/>
				<rect x="201.586" y="319.621" style="fill:#4C6ED4;" width="3.791" height="3.791"/>
				<rect x="205.376" y="319.621" style="fill:#4C6ED4;" width="3.791" height="3.791"/>
				<rect x="209.167" y="319.621" style="fill:#4C6ED4;" width="3.791" height="3.791"/>
				<rect x="216.749" y="319.621" style="fill:#4C6ED4;" width="3.791" height="3.791"/>
				<rect x="224.331" y="319.621" style="fill:#4C6ED4;" width="3.791" height="3.791"/>
				<rect x="228.121" y="319.621" style="fill:#4C6ED4;" width="3.791" height="3.791"/>
				<rect x="231.912" y="319.621" style="fill:#4C6ED4;" width="3.791" height="3.791"/>
				<rect x="235.703" y="319.621" style="fill:#4C6ED4;" width="3.791" height="3.791"/>
				<rect x="247.075" y="319.621" style="fill:#4C6ED4;" width="3.791" height="3.791"/>
				<rect x="250.866" y="319.621" style="fill:#4C6ED4;" width="3.791" height="3.791"/>
				<rect x="266.03" y="319.621" style="fill:#4C6ED4;" width="3.791" height="3.791"/>
				<rect x="277.402" y="319.621" style="fill:#4C6ED4;" width="3.791" height="3.791"/>
			</g>
			<g>
				<path style="fill:#4C6ED4;" d="M267.807,370.397h-67.999c-2.159,0-3.909-1.75-3.909-3.909v-9.807
					c0-2.159,1.75-3.909,3.909-3.909h67.999c2.159,0,3.909,1.75,3.909,3.909v9.807C271.716,368.647,269.966,370.397,267.807,370.397
					z"/>
				
					<text transform="matrix(1 0 0 1 219.6656 365.5183)" style="fill:#FFFFFF; font-family:'Metropolis-SemiBold'; font-size:12px;">Scan</text>
			</g>
			<g>
				<linearGradient id="SVGID_1_" gradientUnits="userSpaceOnUse" x1="186.4223" y1="180.5558" x2="281.1929" y2="180.5558">
					<stop  offset="0" style="stop-color:#37355E;stop-opacity:0.8"/>
					<stop  offset="1" style="stop-color:#D1D1E6"/>
				</linearGradient>
				<rect x="186.422" y="173.017" style="opacity:0.2;fill:url(#SVGID_1_);" width="94.771" height="15.078"/>
				
					<linearGradient id="SVGID_00000140700401310404445750000004617723637035844237_" gradientUnits="userSpaceOnUse" x1="186.4223" y1="197.2844" x2="281.1929" y2="197.2844">
					<stop  offset="0" style="stop-color:#37355E;stop-opacity:0.8"/>
					<stop  offset="1" style="stop-color:#D1D1E6"/>
				</linearGradient>
				
					<rect x="186.422" y="193.515" style="opacity:0.2;fill:url(#SVGID_00000140700401310404445750000004617723637035844237_);" width="94.771" height="7.539"/>
				
					<linearGradient id="SVGID_00000026124095862446560800000007309303356863048109_" gradientUnits="userSpaceOnUse" x1="186.4223" y1="211.5837" x2="281.1929" y2="211.5837">
					<stop  offset="0" style="stop-color:#37355E;stop-opacity:0.8"/>
					<stop  offset="1" style="stop-color:#D1D1E6"/>
				</linearGradient>
				
					<rect x="186.422" y="207.814" style="opacity:0.2;fill:url(#SVGID_00000026124095862446560800000007309303356863048109_);" width="94.771" height="7.539"/>
				
					<linearGradient id="SVGID_00000110433922589939669330000002327004474157197739_" gradientUnits="userSpaceOnUse" x1="186.4223" y1="390.7497" x2="281.1929" y2="390.7497">
					<stop  offset="0" style="stop-color:#37355E;stop-opacity:0.8"/>
					<stop  offset="1" style="stop-color:#D1D1E6"/>
				</linearGradient>
				
					<rect x="186.422" y="384.726" style="opacity:0.2;fill:url(#SVGID_00000110433922589939669330000002327004474157197739_);" width="94.771" height="12.047"/>
			</g>
		</g>
	</g>
	<g>
		<g>
			<path style="fill:#E64054;" d="M112.954,204.074c0,0,10.101-3.961,13.712,9.087c3.611,13.048,7.106,15.727,10.485,17.824
				s3.677,19.182-24.904,19.146c-28.724-0.036-30.315-12.622-23.092-20.777c7.223-8.155,9.669-16.659,10.019-19.921
				C99.523,206.17,104.485,200.579,112.954,204.074z"/>
			<g>
				<path style="fill:#F4B799;" d="M130.153,249.026c-0.087-0.097-0.141-0.153-0.156-0.167c-1.007-0.953-2.325-1.456-3.711-1.417
					c-1.386,0.039-2.674,0.615-3.626,1.622c-1.844,1.951-1.884,5.041-0.09,7.035c0.09,0.1,0.184,0.197,0.283,0.291l19.426,20.059
					l0.017,0.015c1.803,1.647,4.756,1.516,6.432-0.258c1.6-1.692,1.758-4.402,0.198-6.133c0,0,0,0,0,0
					c0-0.064-0.239-0.098-0.301-0.16C147.99,269.189,131.689,250.733,130.153,249.026z"/>
				<path style="fill:#F4B799;" d="M148.615,276.22c-0.053,0.046-0.198,0.187-0.2,0.189l-0.044,0.041
					c-1.843,1.602-4.675,1.433-6.308-0.381c-1.645-1.828-1.484-4.715,0.291-6.409c0.423-0.523,5.494-5.178,18.15-15.605l3.71,4.548
					C160.432,263.342,153.768,272.322,148.615,276.22z"/>
			</g>
			<g>
				<path style="fill:#484867;" d="M114.562,355.07c0.008-0.018,0.005-0.224,0.005-0.224c-0.459-13.721-0.129-45.732-0.13-45.779
					c-0.135-4.989,3.8-9.157,8.788-9.292c4.99-0.135,9.115,3.73,9.25,8.719c0.001,0.048-0.014,0.139-0.014,0.139
					c-1.439,14.652-3.021,25.868-6.515,47.553l-0.028,0.202c-0.385,2.712-2.679,4.864-5.509,4.94
					c-3.158,0.086-5.789-2.389-5.875-5.548C114.528,355.535,114.538,355.309,114.562,355.07z"/>
				<g>
					<path style="fill:#F4B799;" d="M122.792,401.995l-6.478,0.067c-0.206-2.094-0.568-7.626-0.952-10.487h7.784
						C122.991,394.436,122.869,399.824,122.792,401.995z"/>
					<path style="fill:#484867;" d="M114.517,355.155c0.001-0.006,0.057-0.208,0.071-0.306c0.378-2.72,2.674-4.849,5.51-4.926
						c3.158-0.086,5.788,2.405,5.874,5.564c0.009,0.329-0.116,1.43-0.155,1.634c-0.801,4.14-2.021,21.713-2.67,34.455h-7.784
						c-0.491-3.901-1.02-7.316-1.313-8.93C110.754,364.518,114.427,355.736,114.517,355.155z"/>
					<path style="fill:#6F6FA5;" d="M123.197,389.11c0,0,0.702,0.144,0.512,1.208c-0.19,1.065,0.209,1.874-0.231,2.287
						c-0.441,0.412-4.068,1.448-8.324-0.008c0,0-0.631-0.329-0.294-1.854c0.139-0.63-0.587-1.332,0.116-1.999
						C114.975,388.745,118.833,390.389,123.197,389.11z"/>
				</g>
			</g>
			<g>
				<path style="fill:#484867;" d="M92.849,354.23c0.009-0.017,0.017-0.223,0.017-0.223c0.234-13.726,2.183-45.68,2.184-45.727
					c0.117-4.99,4.257-8.953,9.246-8.836c4.99,0.117,8.935,4.282,8.818,9.272c-0.001,0.047-0.01,0.167-0.01,0.167h0.001
					c-2.166,14.562-4.37,25.624-8.955,47.105l-0.032,0.168c-0.522,2.689-2.918,4.705-5.749,4.639
					c-3.158-0.074-5.659-2.687-5.585-5.846C92.79,354.701,92.814,354.467,92.849,354.23z"/>
				<g>
					<path style="fill:#484867;" d="M92.799,354.313c0.002-0.006,0.068-0.205,0.086-0.302c0.514-2.698,2.916-4.708,5.752-4.642
						c3.159,0.074,5.66,2.695,5.585,5.853c-0.008,0.328-0.192,1.428-0.242,1.63c-1.019,4.134-3.114,22.265-4.38,34.944l-7.786-0.808
						c-0.292-3.952-0.66-7.58-0.875-9.239C88.565,363.48,92.681,354.888,92.799,354.313z"/>
					<path style="fill:#F4B799;" d="M98.632,401.827l-6.59,0.38c-0.098-2.048,0.025-8.578-0.228-11.218l7.786,0.808
						C99.316,394.643,98.811,399.752,98.632,401.827z"/>
					<path style="fill:#6F6FA5;" d="M99.878,389.155c0,0,0.691,0.184,0.441,1.236c-0.251,1.052,0.1,1.883-0.364,2.27
						c-0.464,0.386-4.145,1.21-8.309-0.491c0,0-0.611-0.366-0.186-1.869c0.176-0.621-0.508-1.363,0.232-1.989
						C91.692,388.313,95.446,390.178,99.878,389.155z"/>
				</g>
			</g>
			<g>
				<path style="fill:#F4B799;" d="M124.18,402.462c0,0-0.868-1.42-4.423-1.42c-3.554,0-3.857,1.446-3.857,1.446v1.829h8.251
					L124.18,402.462z"/>
				<g>
					<rect x="114.08" y="409.518" style="fill:#D0D1D8;" width="23.924" height="1.82"/>
					<path style="fill:#FFCE43;" d="M137.815,409.518c0,0,1.111-4.249-6.833-3.587l-6.749-4.737c0,0-0.532-0.448-1.028,0.013
						c-0.496,0.461-2.27,2.152-4.432,1.868c-2.163-0.284-2.217-1.663-2.979-1.557c-0.762,0.107-2.021,3.579-1.808,7.999H137.815z"/>
					<path style="fill:#FFDC85;" d="M130.983,405.878c7.943-0.663,6.833,3.64,6.833,3.64h-7.502
						C130.314,406.918,130.983,405.878,130.983,405.878z"/>
					<g>
						<g>
							<path style="fill:#EAEBF4;" d="M128.102,406.453c0.095,0,0.188-0.047,0.242-0.133c0.516-0.832,1.204-1.231,1.211-1.234
								c0.136-0.078,0.183-0.251,0.105-0.387c-0.077-0.136-0.251-0.183-0.387-0.106c-0.033,0.019-0.82,0.475-1.412,1.427
								c-0.082,0.134-0.042,0.308,0.091,0.391C127.999,406.439,128.051,406.453,128.102,406.453z"/>
						</g>
						<g>
							<path style="fill:#EAEBF4;" d="M126.945,405.633c0.095,0,0.188-0.047,0.241-0.134c0.517-0.832,1.204-1.23,1.211-1.233
								c0.136-0.078,0.183-0.252,0.106-0.388c-0.078-0.136-0.251-0.184-0.387-0.106c-0.033,0.019-0.82,0.475-1.412,1.427
								c-0.083,0.133-0.042,0.308,0.091,0.391C126.842,405.62,126.894,405.633,126.945,405.633z"/>
						</g>
						<g>
							<path style="fill:#EAEBF4;" d="M125.787,404.814c0.095,0,0.188-0.047,0.242-0.134c0.517-0.832,1.204-1.23,1.211-1.234
								c0.136-0.078,0.184-0.251,0.106-0.387c-0.078-0.136-0.252-0.183-0.387-0.106c-0.033,0.019-0.82,0.475-1.412,1.428
								c-0.083,0.133-0.042,0.308,0.091,0.391C125.683,404.8,125.736,404.814,125.787,404.814z"/>
						</g>
						<g>
							<path style="fill:#EAEBF4;" d="M124.629,403.994c0.095,0,0.188-0.047,0.241-0.133c0.517-0.832,1.204-1.23,1.211-1.234
								c0.136-0.078,0.183-0.251,0.106-0.387c-0.078-0.136-0.251-0.183-0.387-0.106c-0.033,0.019-0.82,0.476-1.412,1.427
								c-0.082,0.134-0.042,0.308,0.091,0.391C124.527,403.98,124.578,403.994,124.629,403.994z"/>
						</g>
					</g>
				</g>
			</g>
			<g>
				<path style="fill:#F4B799;" d="M99.981,402.462c0,0-0.86-1.42-4.414-1.42c-3.555,0-3.85,1.446-3.85,1.446v1.829h8.237
					L99.981,402.462z"/>
				<g>
					<rect x="90.676" y="409.518" style="fill:#D0D1D8;" width="15.082" height="1.82"/>
					<path style="fill:#FFCE43;" d="M105.497,409.518c0,0,0.67-2.93-2.3-3.597l-3.63-4.762c0,0-1.349-1.256-3.42,0.018
						c-0.478,0.294-1.574,2.168-2.951,1.882c-1.377-0.285-0.943-1.688-1.428-1.581c-0.486,0.107-1.286,3.099-1.151,8.04H105.497z"/>
					<path style="fill:#FFDC85;" d="M103.197,405.853c2.97,0.667,2.3,3.665,2.3,3.665H97.66
						C97.856,405.097,103.197,405.853,103.197,405.853z"/>
					<g>
						<g>
							<path style="fill:#EAEBF4;" d="M99.147,405.607c0.039,0,0.079-0.008,0.116-0.025c1.789-0.798,2.975-0.442,2.986-0.439
								c0.15,0.047,0.311-0.036,0.358-0.185c0.048-0.15-0.034-0.31-0.183-0.359c-0.056-0.018-1.389-0.432-3.394,0.461
								c-0.144,0.064-0.209,0.233-0.144,0.377C98.933,405.544,99.038,405.607,99.147,405.607z"/>
						</g>
						<g>
							<path style="fill:#EAEBF4;" d="M98.433,404.607c0.039,0,0.078-0.008,0.116-0.025c1.789-0.797,2.975-0.442,2.986-0.439
								c0.15,0.047,0.31-0.036,0.358-0.186c0.048-0.15-0.034-0.31-0.183-0.358c-0.056-0.018-1.389-0.433-3.394,0.461
								c-0.144,0.064-0.209,0.233-0.145,0.377C98.219,404.544,98.323,404.607,98.433,404.607z"/>
						</g>
						<g>
							<path style="fill:#EAEBF4;" d="M97.87,403.794c0.041,0,0.083-0.009,0.123-0.028c1.784-0.854,2.96-0.524,2.972-0.52
								c0.151,0.044,0.31-0.042,0.354-0.194c0.045-0.151-0.042-0.31-0.193-0.354c-0.056-0.017-1.4-0.395-3.38,0.553
								c-0.142,0.068-0.203,0.239-0.135,0.381C97.661,403.734,97.763,403.794,97.87,403.794z"/>
						</g>
						<g>
							<path style="fill:#EAEBF4;" d="M97.162,402.822c0.043,0,0.087-0.01,0.128-0.031c1.769-0.885,2.951-0.577,2.962-0.573
								c0.152,0.042,0.309-0.048,0.351-0.2c0.041-0.152-0.047-0.31-0.2-0.352c-0.057-0.015-1.406-0.369-3.369,0.614
								c-0.141,0.071-0.198,0.242-0.128,0.383C96.956,402.764,97.057,402.822,97.162,402.822z"/>
						</g>
					</g>
				</g>
			</g>
			<path style="fill:#484867;" d="M94.966,308.132c-0.001-0.32,0.063-0.957,0.099-1.194c0.035-0.293,0.083-0.582,0.145-0.866
				c1.879-10.321,7.297-19.281,7.297-19.281l22.895,0.132c0,0,6.103,7.029,7.073,19.048c0.073,0.466,0,2.524,0,2.524
				c-0.146,4.606-3.578,8.155-7.999,8.622c0,0-20.634,0.02-20.634,0.019C98.961,316.966,95.017,313.042,94.966,308.132z"/>
			<g style="opacity:0.3;">
				<g>
					<path d="M113.51,316.772c0.1,0,0.196-0.058,0.238-0.156c0.011-0.026,1.151-2.674,2.528-8.293
						c1.382-5.641,0.063-18.251,0.006-18.785c-0.015-0.143-0.146-0.247-0.286-0.231c-0.143,0.015-0.246,0.143-0.231,0.286
						c0.014,0.13,1.366,13.053,0.006,18.606c-1.364,5.568-2.488,8.183-2.5,8.209c-0.057,0.132,0.003,0.285,0.135,0.342
						C113.44,316.765,113.475,316.772,113.51,316.772z"/>
				</g>
				<g>
					<path d="M115.85,312.023c0.013,0,0.026-0.001,0.038-0.003c2.606-0.392,3.532-3.505,3.571-3.637
						c1.708-5.258,0.016-18.589-0.057-19.154c-0.019-0.142-0.147-0.244-0.291-0.225c-0.143,0.018-0.243,0.149-0.225,0.291
						c0.018,0.137,1.75,13.779,0.076,18.935c-0.011,0.037-0.877,2.933-3.15,3.275c-0.142,0.021-0.24,0.154-0.219,0.296
						C115.613,311.93,115.724,312.023,115.85,312.023z"/>
				</g>
				<g>
					<path d="M115.062,293.537c7.532,0,12.005-2.32,12.071-2.355c0.127-0.068,0.174-0.225,0.107-0.352
						c-0.067-0.126-0.225-0.174-0.352-0.107c-0.098,0.052-9.959,5.15-25.148-0.017c-0.136-0.046-0.284,0.027-0.33,0.163
						c-0.047,0.136,0.026,0.284,0.162,0.33C106.726,292.952,111.28,293.537,115.062,293.537z"/>
				</g>
				<circle cx="117.902" cy="291.083" r="1.073"/>
				<path d="M107.183,293.294c0,0-0.054,7.417-7.698,7.218c0,0,1.327-5.529,3.018-8.357
					C102.502,292.155,105.752,293.23,107.183,293.294z"/>
				<path d="M126.382,292.123c0,0,0.823,4.16,4.117,5.2c0,0-1.322-4.125-2.449-6.028
					C128.051,291.296,127.292,291.734,126.382,292.123z"/>
				<g>
					<path d="M99.757,302.362c2.748,0.001,4.951-0.775,6.556-2.311c2.779-2.657,2.757-6.602,2.754-6.768
						c-0.002-0.142-0.118-0.264-0.26-0.264h-0.004c-0.143,0-0.258,0.127-0.256,0.271c0,0.038,0.018,3.887-2.597,6.385
						c-1.67,1.595-4.051,2.317-7.074,2.139c-0.145-0.009-0.266,0.102-0.275,0.245c-0.008,0.143,0.101,0.267,0.244,0.276
						C99.156,302.353,99.46,302.362,99.757,302.362z"/>
				</g>
				<g>
					<path d="M130.814,298.949c0.116,0,0.221-0.078,0.252-0.195c0.035-0.139-0.048-0.281-0.187-0.316
						c-4.717-1.21-5.423-6.008-5.43-6.057c-0.019-0.142-0.149-0.242-0.293-0.223c-0.143,0.019-0.242,0.15-0.223,0.293
						c0.007,0.052,0.765,5.194,5.817,6.49C130.771,298.946,130.793,298.949,130.814,298.949z"/>
				</g>
				<g>
					<g>
						<path d="M112.228,316.281c0.048,0,0.097-0.013,0.14-0.041c0.121-0.077,0.156-0.238,0.079-0.359
							c-0.023-0.037-2.383-3.681-5.829-6.122c-0.117-0.083-0.279-0.055-0.363,0.062c-0.083,0.117-0.055,0.28,0.062,0.363
							c3.362,2.382,5.669,5.943,5.692,5.979C112.059,316.239,112.143,316.281,112.228,316.281z"/>
					</g>
					<g>
						<path d="M110.693,315.758c0.075,0,0.15-0.033,0.201-0.096c0.091-0.111,0.075-0.275-0.037-0.366
							c-0.045-0.037-4.539-3.666-10.26-4.706c-0.141-0.025-0.277,0.068-0.302,0.21c-0.026,0.141,0.067,0.276,0.209,0.302
							c5.59,1.016,9.98,4.561,10.024,4.597C110.577,315.738,110.635,315.758,110.693,315.758z"/>
					</g>
					<g>
						<path d="M110.953,316.772c0.122,0,0.231-0.086,0.255-0.21c0.028-0.141-0.064-0.278-0.205-0.305
							c-0.23-0.046-5.676-1.104-8.556-0.49c-0.14,0.03-0.23,0.168-0.2,0.309c0.03,0.141,0.169,0.23,0.309,0.2
							c2.775-0.592,8.291,0.48,8.347,0.491C110.92,316.771,110.937,316.772,110.953,316.772z"/>
					</g>
				</g>
				<g>
					<g>
						<path d="M116.674,316.281c0.086,0,0.169-0.042,0.219-0.119c0.023-0.036,2.33-3.597,5.692-5.979
							c0.117-0.083,0.145-0.245,0.062-0.363c-0.084-0.117-0.245-0.145-0.363-0.062c-3.447,2.442-5.806,6.086-5.829,6.122
							c-0.077,0.121-0.042,0.282,0.078,0.359C116.577,316.268,116.626,316.281,116.674,316.281z"/>
					</g>
					<g>
						<path d="M118.209,315.758c0.058,0,0.116-0.019,0.164-0.059c0.044-0.036,4.439-3.582,10.024-4.597
							c0.141-0.026,0.235-0.161,0.209-0.302c-0.025-0.142-0.161-0.235-0.302-0.21c-5.721,1.04-10.216,4.67-10.26,4.706
							c-0.111,0.091-0.128,0.255-0.037,0.366C118.059,315.725,118.134,315.758,118.209,315.758z"/>
					</g>
					<g>
						<path d="M117.949,316.772c0.017,0,0.033-0.002,0.05-0.005c0.056-0.011,5.573-1.084,8.346-0.491
							c0.14,0.03,0.279-0.059,0.309-0.2c0.03-0.14-0.059-0.279-0.2-0.309c-2.88-0.614-8.325,0.444-8.556,0.49
							c-0.141,0.028-0.233,0.164-0.205,0.305C117.718,316.686,117.827,316.772,117.949,316.772z"/>
					</g>
				</g>
			</g>
			<g>
				<path style="fill:#F4B799;" d="M116.126,242.531l0.025,6.436l-7.875,0.031l-0.033-8.373
					C111.517,242.765,114.781,242.704,116.126,242.531z"/>
				<path style="fill:#F4B799;" d="M108.243,240.625l-0.026-6.45l7.875-0.031l0.033,8.386
					C114.781,242.704,111.517,242.765,108.243,240.625z"/>
				<path style="opacity:0.3;" d="M108.188,240.625l-0.026-6.45l7.875-0.031l0.033,8.386
					C114.726,242.704,111.461,242.765,108.188,240.625z"/>
			</g>
			<path style="fill:#F4B799;" d="M113.317,247.731c-2.835,0.066-5.115-1.639-5.83-2.492c1.527-0.273,3.819-0.808,5.15-0.822
				c1.261-0.014,3.131,0.41,4.429,0.638C117.012,245.678,116.341,247.661,113.317,247.731z"/>
			<path style="fill:#FFCE43;" d="M92.75,250.906c0-3.056,4.31-3.673,4.31-3.673c2.243-0.423,5.879-0.963,8.259-1.537
				c0,0,1.123-0.251,2.58-0.512c0.715,0.853,2.543,2.278,5.378,2.212c3.024-0.07,3.451-1.728,3.505-2.351
				c1.378,0.243,2.434,0.497,2.434,0.497c4.232,0.89,7.601,1.691,7.601,1.691s4.44,0.618,4.44,3.673
				c0,1.381-2.873,3.395-4.173,4.112v0.338c4.161,3.253,4.693,5.691,4.693,8.468c0,5.805-4.903,7.227-4.903,7.227l-1.453,15.871
				c-9.08,4.751-22.904-0.132-22.904-0.132c-1.504-10.244-3.858-16.827-4.946-23.376c-0.454-2.734-0.635-5.782-0.682-8.489
				C95.486,254.139,92.75,252.231,92.75,250.906z"/>
			<path style="fill:#FFCE43;" d="M130.5,294.319c0,0,0.855,2.446,1.211,4.634c0,0-12.125,5.615-35.052,0.003l1.517-4.637H130.5z"/>
			<path style="fill:#FFFFFF;" d="M113.766,249.541c-4.849,0.113-7.74-2.128-8.725-3.78c0.093-0.022,0.187-0.043,0.277-0.064
				c0,0,1.123-0.251,2.58-0.512c0.715,0.853,2.543,2.278,5.378,2.212c3.024-0.07,3.451-1.728,3.505-2.351
				c1.265,0.223,2.255,0.455,2.41,0.491C118.892,246.937,117.796,249.447,113.766,249.541z"/>
			<path style="opacity:0.1;" d="M130.374,266.302c0,0-1.029,0.871-3.268,1.064c-4.518,0.39-11.929,1.203-18.463,0.153
				c-2.74-0.44-4.756-1.825-6.82-3.443c0,0,1.231,7.025,9.819,6.884C120.231,270.817,129.836,271.873,130.374,266.302z"/>
			<g>
				<path style="fill:#F4B799;" d="M91.827,304.105c0,0,3.37,2.42,3.672,3.641c0.303,1.221,1.23,4.098,1.234,4.69
					c0.012,1.467,0.726,3.381,0.336,3.515c-0.39,0.134-1.156,0.487-2.069-2.362l0.27,3.32c0,0,0.169,1.198-0.777,1.309
					c-1.014,0.119-1.126-0.829-1.126-0.829l-0.422-1.207c0,0-0.181,0.628-0.964,0.591c-0.826-0.04-1.087-1.463-1.087-1.463
					s-0.339,0.669-1.08,0.52c-0.741-0.149-0.934-0.769-0.934-0.769s-0.449,0.284-0.813,0.141c-0.582-0.228-0.959-1.552-0.959-1.552
					s-0.674-3.796,0.134-8.239C87.241,305.411,88.305,301.075,91.827,304.105z"/>
				<path style="opacity:0.3;" d="M88.066,315.202c0.364,0.143,0.813-0.141,0.813-0.141s0.193,0.619,0.934,0.769
					c0.741,0.149,1.08-0.52,1.08-0.52s0.261,1.424,1.087,1.463c0.782,0.037,0.964-0.591,0.964-0.591l0.422,1.207
					c0,0,0.117,0.941,1.085,0.841c0.948-0.098,0.818-1.321,0.818-1.321l-0.264-3.255c-0.003-0.018-0.42-2.787-0.6-2.887l0.289,3.292
					c0,0-0.507,1.428-1.707,0.891c0,0-1.006,0.799-2.03-0.126c0,0-1.401,0.562-2.093-0.39c0,0-1.243,0.501-1.78-0.923
					c0.014,0.09,0.022,0.139,0.022,0.139S87.484,314.974,88.066,315.202z"/>
			</g>
			<g>
				<path style="fill:#F4B799;" d="M84.993,281.386c0.002-0.07-0.007-0.269-0.007-0.272l-0.001-0.059
					c0.042-2.442,2.062-4.433,4.502-4.433c2.459,0,4.497,2.045,4.569,4.497c0.106,0.664-0.156,7.659-0.872,24.042l-6.063,0.971
					C86.117,300.151,84.444,287.824,84.993,281.386z"/>
				<path style="fill:#F4B799;" d="M89.345,285.601c2.094,0,3.936-1.473,4.392-3.518c1.866-6.248,7.911-26.505,7.987-26.888
					c0.556-2.807-1.274-5.542-4.082-6.099c-0.334-0.066-0.676-0.099-1.014-0.099c-2.462,0-4.596,1.751-5.084,4.166l-6.629,27.125
					l-0.004,0.022c-0.434,2.403,1.161,4.737,3.555,5.212C88.756,285.58,89.051,285.601,89.345,285.601L89.345,285.601z"/>
			</g>
			<path style="fill:#FFCE43;" d="M99.81,273.404c0,0,0.232,16.91-3.152,25.552l34.121-3.777c0,0-4.011-10.983-4.119-21.814
				L99.81,273.404z"/>
			<path style="fill:#FFCE43;" d="M97.405,247.169c0,0-9.629,0.564-9.976,17.1l12.945,1.699
				C100.374,265.969,108.217,251.202,97.405,247.169z"/>
			<path style="fill:#FFCE43;" d="M122.841,249.467c0,0-4.852,8.337,8.738,17.765l7.62-8.757
				C139.199,258.475,132.177,242.684,122.841,249.467z"/>
			<path style="fill:#F4B799;" d="M103.881,223.955c-0.154,1.471-1.472,2.538-2.943,2.384c-1.471-0.154-2.538-1.472-2.384-2.943
				c0.154-1.471,1.472-2.538,2.943-2.384C102.968,221.166,104.035,222.484,103.881,223.955z"/>
			<path style="fill:#F4B799;" d="M126.242,223.955c-0.154,1.471-1.472,2.538-2.943,2.384c-1.471-0.154-2.538-1.472-2.384-2.943
				c0.154-1.471,1.472-2.538,2.943-2.384C125.329,221.166,126.397,222.484,126.242,223.955z"/>
			<path style="fill:#F4B799;" d="M119.666,211.458c-5.624-6.253-16.034-3.361-17.816,4.859c-0.799,3.687-1.289,8.275-0.465,12.852
				c1.857,10.317,8.503,14.526,15.739,10.93c7.236-3.595,7.563-18.322,4.993-24.702
				C121.528,213.936,120.695,212.603,119.666,211.458z"/>
			<g>
				<g>
					<path style="fill:#F4B799;" d="M159.388,255.619c0,0-0.171-2.168,0.424-3.812c0.224-0.62,0.198-2.901-0.422-4.144
						c-0.593-1.19-1.107-1.446-0.8-1.732c0.807-0.752,2.053-0.885,3.866,3.598l2.869-1.785c0,0,1.026-0.606,1.653,0.1
						c0.571,0.643-0.013,1.235-0.013,1.235l0,0c0,0,0.948-0.297,1.405,0.33c0.483,0.663-0.057,1.421-0.057,1.421
						s0.475-0.033,0.874,0.675c0.327,0.582-0.014,1.199-0.014,1.199s0.299,0.334,0.415,0.704c0.186,0.592-0.204,1.377-0.204,1.377
						s-1.915,2.388-5.849,4.524C163.537,259.307,158.617,260.816,159.388,255.619z"/>
				</g>
				<path style="opacity:0.3;" d="M162.486,249.726l2.867-1.713c0,0-1.624,1.399-2.099,1.936c-0.476,0.538,0.006,1.148,0.006,1.148
					s0.013,0.024,0.036,0.065l-0.003-0.009c0.332,0.436,1.048-0.028,1.048-0.028l2.625-2.049c0,0-1.855,1.582-2.546,2.179
					c-0.691,0.597-0.423,1.086-0.423,1.086l-0.005-0.001c0.059,0.094,0.12,0.192,0.185,0.295c0.398,0.496,1.096,0.148,1.096,0.148
					l3.042-1.954c0,0-2.254,1.67-2.924,2.097c-0.667,0.424-0.296,1.072-0.292,1.079c0.013,0.018,0.026,0.036,0.039,0.055
					c0.381,0.537,0.991,0.345,0.991,0.345l3.046-1.702c0,0-2.484,1.538-2.913,1.828c-0.428,0.29-0.229,0.756-0.229,0.757
					c0.091,0.121,0.16,0.215,0.197,0.263c0.476,0.63,3.027-0.94,3.027-0.94c-0.31,0.536-2.107,1.839-2.107,1.839
					c-2.304-1.964-4.494-1.169-4.494-1.169C164.134,252.792,162.486,249.726,162.486,249.726z"/>
			</g>
			<path style="fill:#E64054;" d="M124.163,219.55c0,0-11.503-5.821-12.051-12.36C112.112,207.19,124.721,204.319,124.163,219.55z"
				/>
			<path style="fill:#E64054;" d="M114.753,207.908c0,0-1.168,5.758-6.997,7.655c0,0,0.598-1.491,0.598-3.018
				c0,0-2.153,4.992-7.655,5.171C100.699,217.716,99.802,204.618,114.753,207.908z"/>
		</g>
		<path style="opacity:0.3;fill:#DADAE0;" d="M155.188,410.684c0,2.748-18.836,4.975-42.072,4.975
			c-23.236,0-42.072-2.227-42.072-4.975c0-2.748,18.836-4.975,42.072-4.975C136.352,405.709,155.188,407.936,155.188,410.684z"/>
	</g>
	<g>
		<path style="opacity:0.3;fill:#DADAE0;" d="M391.728,411.09c0,2.748-18.836,4.975-42.072,4.975
			c-23.236,0-42.072-2.227-42.072-4.975c0-2.748,18.836-4.975,42.072-4.975C372.892,406.115,391.728,408.342,391.728,411.09z"/>
		<g>
			<g>
				<g>
					<rect x="340.267" y="394.261" style="fill:#FAA284;" width="7.394" height="8.414"/>
					<path style="fill:#484867;" d="M348.912,358.692c-0.082-3.825-3.142-6.368-6.368-6.368c-3.382,0-6.368,2.756-6.368,6.368
						c-0.056,1.774,3.795,39.297,3.795,39.297c3.716,0,3.616-0.283,8.078-0.253L348.912,358.692z"/>
					<path style="fill:#484867;" d="M348.058,310.757c0-3.829-3.104-6.933-6.933-6.933c-3.829,0-6.933,3.104-6.933,6.933
						c0,0.097,1.898,46.174,1.984,47.935c0.08,4.032,3.358,6.368,6.368,6.368c3.295,0,6.508-2.724,6.363-6.599L348.058,310.757z"/>
				</g>
				<g>
					<path style="fill:#FAA284;" d="M338.949,401.91c0,0,1.042-1.576,5.057-1.576c4.016,0,4.42,1.661,4.42,1.661v1.955h-9.446
						L338.949,401.91z"/>
					<g>
						<rect x="323.439" y="410.07" style="fill:#DBDBDB;" width="27.027" height="2.04"/>
						<path style="fill:#FFCE43;" d="M323.545,410.07c0,0-1.255-4.866,7.719-4.118l7.625-5.385c0,0,0.601-0.522,1.162-0.001
							c0.561,0.521,2.564,2.423,5.008,2.103c2.444-0.32,2.504-1.818,3.365-1.697c0.861,0.12,2.283,4,2.043,9.099H323.545z"/>
						<path style="fill:#FFDC85;" d="M331.263,405.957c-8.974-0.748-7.719,4.113-7.719,4.113h8.475
							C332.019,407.01,331.263,405.957,331.263,405.957z"/>
						<g>
							<g>
								<path style="fill:#E8E8E8;" d="M335.825,405.549c-0.107,0-0.212-0.054-0.273-0.152c-0.584-0.939-1.361-1.39-1.368-1.394
									c-0.153-0.088-0.207-0.284-0.12-0.437c0.088-0.154,0.283-0.208,0.437-0.12c0.037,0.021,0.927,0.536,1.595,1.613
									c0.094,0.15,0.047,0.348-0.103,0.442C335.941,405.534,335.883,405.549,335.825,405.549z"/>
							</g>
							<g>
								<path style="fill:#E8E8E8;" d="M337.133,404.623c-0.107,0-0.212-0.053-0.272-0.151c-0.584-0.94-1.361-1.39-1.368-1.394
									c-0.154-0.088-0.207-0.283-0.12-0.437c0.088-0.154,0.284-0.207,0.437-0.12c0.038,0.021,0.927,0.537,1.595,1.613
									c0.093,0.15,0.047,0.348-0.103,0.442C337.249,404.608,337.191,404.623,337.133,404.623z"/>
							</g>
							<g>
								<path style="fill:#E8E8E8;" d="M338.441,403.697c-0.108,0-0.212-0.054-0.273-0.151c-0.584-0.94-1.36-1.39-1.368-1.394
									c-0.154-0.088-0.207-0.283-0.119-0.437c0.088-0.154,0.284-0.207,0.437-0.12c0.038,0.022,0.926,0.537,1.595,1.613
									c0.093,0.15,0.047,0.348-0.103,0.441C338.557,403.682,338.499,403.697,338.441,403.697z"/>
							</g>
						</g>
					</g>
				</g>
				<g>
					
						<rect x="362.46" y="394.183" transform="matrix(0.9996 -0.0287 0.0287 0.9996 -11.2821 10.6719)" style="fill:#FAA284;" width="7.394" height="8.414"/>
					<path style="fill:#484867;" d="M369.973,358.488c-0.192-3.821-3.324-6.275-6.548-6.183c-3.381,0.097-6.286,2.937-6.183,6.548
						c-0.005,1.775,5.098,39.084,5.098,39.084c3.519-0.329,3.464-0.336,7.636-0.759L369.973,358.488z"/>
					<path style="fill:#484867;" d="M367.745,310.598c-0.11-3.828-3.301-6.841-7.129-6.732c-3.827,0.11-6.841,3.302-6.731,7.129
						c0.003,0.097,3.221,46.101,3.358,47.859c0.195,4.028,3.539,6.269,6.548,6.183c3.293-0.095,6.428-2.909,6.172-6.779
						L367.745,310.598z"/>
				</g>
				<g>
					<path style="fill:#FAA284;" d="M360.877,401.91c0,0,1.042-1.576,5.057-1.576s4.42,1.661,4.42,1.661v1.955h-9.446
						L360.877,401.91z"/>
					<g>
						<rect x="347.662" y="410.07" style="fill:#E8E8E8;" width="24.988" height="2.04"/>
						<path style="fill:#FFCE43;" d="M350.46,410.07c0,0-0.471-4.125,4.72-4.234l6.283-5.52c0,0,1.134-0.86,2.621-0.007
							c1.107,0.635,1.268,2.477,3.281,2.149c2.014-0.328,2.063-1.842,2.773-1.719c0.71,0.123,2.701,3.72,2.503,9.33H350.46z"/>
						<path style="fill:#FFDC85;" d="M352.392,405.861c-5.191,0.109-4.72,4.209-4.72,4.209h8.708
							C356.39,405.99,352.392,405.861,352.392,405.861z"/>
						<g>
							<g>
								<path style="fill:#FFFFFF;" d="M360.456,405.346c-0.087,0-0.174-0.035-0.239-0.104c-1.148-1.223-2.756-1.255-2.772-1.255
									c-0.181-0.002-0.327-0.096-0.325-0.277c0.002-0.18,0.149-0.27,0.328-0.27c0.001,0,0.003,0,0.003,0
									c0.077,0,1.905-0.017,3.243,1.408c0.124,0.132,0.117,0.313-0.014,0.436C360.618,405.344,360.537,405.346,360.456,405.346z"
									/>
							</g>
							<g>
								<path style="fill:#FFFFFF;" d="M361.768,404.198c-0.087,0-0.175-0.035-0.239-0.104c-1.148-1.223-2.756-1.254-2.771-1.255
									c-0.181-0.002-0.326-0.16-0.325-0.34c0.002-0.18,0.149-0.334,0.328-0.334h0.004c0.077,0,1.906,0.047,3.243,1.471
									c0.124,0.132,0.118,0.344-0.014,0.468C361.929,404.164,361.849,404.198,361.768,404.198z"/>
							</g>
							<g>
								<path style="fill:#FFFFFF;" d="M363.08,403.05c-0.087,0-0.174-0.035-0.239-0.104c-1.148-1.223-2.755-1.255-2.771-1.255
									c-0.181-0.002-0.327-0.096-0.325-0.277c0.002-0.18,0.148-0.27,0.328-0.27c0.001,0,0.003,0,0.003,0
									c0.077,0,1.906-0.018,3.243,1.407c0.124,0.132,0.118,0.312-0.014,0.436C363.242,403.048,363.161,403.05,363.08,403.05z"/>
							</g>
						</g>
					</g>
				</g>
				<path style="fill:#484867;" d="M367.805,299.92h-33.668l0.132,11.903c0.091,4.328,3.614,7.828,7.926,7.98l17.673,0.126
					c4.4-0.121,7.937-3.788,7.937-8.217C367.805,311.468,367.805,299.92,367.805,299.92z"/>
				<path style="fill:#6F6FA5;" d="M370.941,397.474c-0.254,0-10.064,0.516-10.064,0.516l-0.689-5.399h11.184L370.941,397.474z"/>
				<path style="fill:#6F6FA5;" d="M349.126,397.952c-0.254,0-10.064,0.516-10.064,0.516l-0.689-5.399h11.184L349.126,397.952z"/>
				<g style="opacity:0.3;">
					<g>
						<path d="M352.078,319.523c-0.084,0-0.163-0.049-0.199-0.13c-0.009-0.022-0.96-2.231-2.109-6.917
							c-1.153-4.705-0.052-15.223-0.005-15.668c0.013-0.119,0.122-0.206,0.238-0.193c0.119,0.013,0.206,0.12,0.193,0.239
							c-0.012,0.108-1.14,10.888-0.005,15.519c1.138,4.644,2.076,6.825,2.085,6.847c0.048,0.11-0.003,0.238-0.113,0.285
							C352.136,319.517,352.107,319.523,352.078,319.523z"/>
					</g>
					<g>
						<path d="M350.126,315.561c-0.01,0-0.022-0.001-0.032-0.003c-2.174-0.327-2.946-2.923-2.978-3.034
							c-1.424-4.386-0.013-15.504,0.047-15.976c0.015-0.119,0.123-0.203,0.243-0.187c0.119,0.015,0.203,0.124,0.187,0.243
							c-0.015,0.114-1.46,11.493-0.063,15.793c0.009,0.031,0.731,2.447,2.628,2.732c0.119,0.018,0.2,0.128,0.182,0.246
							C350.324,315.484,350.231,315.561,350.126,315.561z"/>
					</g>
					<g>
						<path d="M350.783,300.143c-6.282,0-10.013-1.935-10.068-1.964c-0.106-0.056-0.146-0.188-0.089-0.293
							c0.056-0.105,0.188-0.145,0.294-0.089c0.081,0.044,8.307,4.296,20.975-0.014c0.113-0.038,0.237,0.022,0.275,0.136
							c0.039,0.113-0.022,0.237-0.135,0.275C357.736,299.655,353.938,300.143,350.783,300.143z"/>
					</g>
					<circle cx="348.414" cy="298.095" r="0.895"/>
					<path d="M357.355,299.94c0,0,0.045,6.186,6.421,6.021c0,0-1.107-4.612-2.517-6.971
						C361.26,298.99,358.548,299.887,357.355,299.94z"/>
					<path d="M341.341,298.964c0,0-0.687,3.47-3.434,4.337c0,0,1.103-3.441,2.043-5.028
						C339.95,298.273,340.582,298.639,341.341,298.964z"/>
					<g>
						<path d="M363.549,307.503c-2.293,0.001-4.129-0.647-5.468-1.927c-2.318-2.216-2.299-5.506-2.297-5.645
							c0.002-0.119,0.099-0.22,0.217-0.22h0.003c0.12,0,0.215,0.106,0.214,0.226c0,0.032-0.015,3.242,2.166,5.325
							c1.393,1.331,3.379,1.932,5.9,1.784c0.121-0.007,0.222,0.085,0.229,0.204c0.007,0.12-0.084,0.223-0.203,0.23
							C364.05,307.496,363.797,307.503,363.549,307.503z"/>
					</g>
					<g>
						<path d="M337.645,304.657c-0.097,0-0.185-0.065-0.21-0.163c-0.029-0.116,0.04-0.234,0.156-0.264
							c3.934-1.009,4.524-5.012,4.529-5.052c0.016-0.119,0.124-0.202,0.244-0.185c0.119,0.016,0.202,0.125,0.186,0.244
							c-0.006,0.043-0.638,4.332-4.852,5.414C337.681,304.655,337.663,304.657,337.645,304.657z"/>
					</g>
					<g>
						<g>
							<path d="M353.147,319.113c-0.04,0-0.081-0.011-0.117-0.034c-0.101-0.065-0.13-0.199-0.066-0.299
								c0.02-0.031,1.987-3.07,4.862-5.107c0.098-0.069,0.233-0.046,0.302,0.051c0.069,0.098,0.046,0.233-0.052,0.302
								c-2.804,1.986-4.729,4.957-4.748,4.987C353.288,319.078,353.218,319.113,353.147,319.113z"/>
						</g>
						<g>
							<path d="M354.428,318.677c-0.063,0-0.125-0.027-0.168-0.08c-0.076-0.092-0.062-0.229,0.03-0.305
								c0.037-0.031,3.786-3.058,8.557-3.925c0.117-0.021,0.231,0.057,0.252,0.175c0.022,0.118-0.056,0.231-0.174,0.252
								c-4.663,0.848-8.324,3.805-8.361,3.834C354.524,318.66,354.476,318.677,354.428,318.677z"/>
						</g>
						<g>
							<path d="M354.21,319.523c-0.101,0-0.192-0.072-0.212-0.175c-0.023-0.118,0.053-0.232,0.171-0.255
								c0.192-0.038,4.734-0.921,7.136-0.408c0.117,0.025,0.192,0.14,0.167,0.257c-0.025,0.117-0.141,0.191-0.258,0.167
								c-2.315-0.494-6.916,0.401-6.962,0.41C354.238,319.521,354.224,319.523,354.21,319.523z"/>
						</g>
					</g>
					<g>
						<g>
							<path d="M349.439,319.113c-0.071,0-0.141-0.035-0.183-0.1c-0.019-0.03-1.943-3.001-4.747-4.987
								c-0.098-0.069-0.121-0.205-0.052-0.302c0.07-0.098,0.205-0.121,0.302-0.051c2.875,2.037,4.843,5.076,4.862,5.107
								c0.065,0.101,0.035,0.235-0.065,0.299C349.52,319.102,349.479,319.113,349.439,319.113z"/>
						</g>
						<g>
							<path d="M348.158,318.677c-0.048,0-0.097-0.016-0.137-0.049c-0.036-0.03-3.702-2.988-8.361-3.834
								c-0.118-0.022-0.196-0.135-0.174-0.252c0.021-0.118,0.134-0.196,0.252-0.175c4.772,0.868,8.521,3.895,8.557,3.925
								c0.093,0.076,0.107,0.212,0.031,0.305C348.284,318.649,348.221,318.677,348.158,318.677z"/>
						</g>
						<g>
							<path d="M348.376,319.523c-0.014,0-0.028-0.001-0.042-0.004c-0.046-0.009-4.648-0.904-6.962-0.41
								c-0.117,0.025-0.233-0.05-0.258-0.167c-0.025-0.117,0.049-0.232,0.167-0.257c2.402-0.512,6.944,0.371,7.136,0.408
								c0.118,0.023,0.194,0.137,0.171,0.255C348.568,319.451,348.477,319.523,348.376,319.523z"/>
						</g>
					</g>
				</g>
			</g>
			<path style="fill:#502F26;" d="M362.377,204.581c1.534,1.162,2.508,2.949,2.997,4.811c0.655,2.491,0.507,5.146-0.118,7.645
				c-0.625,2.499-1.711,4.859-2.925,7.131c-0.226,0.423-0.473,0.861-0.876,1.12c-0.361,0.231-0.802,0.29-1.227,0.343
				c-5.106,0.635-10.281,1.271-15.381,0.589c-1.177-0.158-2.417-0.421-3.27-1.247c-1.104-1.069-1.256-2.76-1.311-4.295
				c-0.049-1.358-0.076-2.717-0.079-4.076c-0.009-3.025-4.503-3.845-3.562-6.72c0.364-1.112,5.474-4.467,6.318-5.277
				c0.636-0.611,1.433-1.026,2.247-1.365c2.708-1.127,5.735-1.475,8.628-0.993c1.477,0.246,2.693,1.287,4.149,1.185
				C359.583,203.316,361.05,203.576,362.377,204.581z"/>
			<g>
				<rect x="347.152" y="232.607" style="fill:#F4B799;" width="10.454" height="12.239"/>
				<path style="opacity:0.3;" d="M357.606,237.835v-5.229h-10.454v8.159C348.682,240.984,354.801,241.404,357.606,237.835z"/>
			</g>
			<path style="fill:#F4B799;" d="M345.706,243.35c0,0,6.151-1.434,13.482,0c0,0-1.849,4.207-7.331,4.207
				C346.375,247.557,345.706,243.35,345.706,243.35z"/>
			<path style="fill:#FFCE43;" d="M379.013,251.642c-1.049-3.779-4.403-4.374-4.403-4.374s-8.809-2.449-16.059-4.029
				c0,0-1.573,4.199-7.48,4.103c-5.12-0.083-4.633-4.103-4.633-4.103c-3.3,0.519-11.641,2.471-14.929,4.008
				c0,0-3.462,1.158-3.791,5.111c0,0-0.048,1.781,3.698,4.236c0.226,4.164,0.763,9.923,1.908,17.677
				c1.336,9.048,0.812,13.794,0.789,26.287c0,0,10.709,4.49,34.341-0.017c0,0-0.858-13.179,0.317-23.131
				c0.947-8.016,4.133-15.831,4.643-20.139v0.002C380.044,254.487,379.013,251.642,379.013,251.642z"/>
			<g>
				<path style="fill:#F4B799;" d="M376.68,250.517c-1.618-2.056-4.596-2.411-6.652-0.793c-2.056,1.618-2.411,4.596-0.793,6.652
					c0.254,0.323,20.524,21.6,20.524,21.6c1.379,1.691,3.862,1.974,5.584,0.62c1.722-1.355,2.031-3.836,0.711-5.574L376.68,250.517z
					"/>
				<path style="fill:#F4B799;" d="M395.551,278.402c1.575-1.511,1.656-4.009,0.167-5.616c-1.489-1.607-4.044-1.763-5.669-0.307l0,0
					c0,0-6.05,3.956-21.287,19.774l3.478,3.753c0,0,16.323-9.972,23.102-17.421C395.387,278.537,395.551,278.402,395.551,278.402z"
					/>
				<g>
					<path style="fill:#FFCE43;" d="M390.407,264.095L377.815,249.5c-2.115-2.653-5.993-3.103-8.662-0.999
						c-2.677,2.111-3.136,6.007-1.026,8.683c0.186,0.236,6.608,6.979,13.746,14.461
						C384.074,270.006,387.686,267.138,390.407,264.095z"/>
				</g>
			</g>
			<g>
				<path style="fill:#F4B799;" d="M373.705,292.191c-0.797-2.29-2.013-1.929-2.013-1.929l-1.751,0.086
					c-1.523-0.764-2.336-1.981-3.12-2.227c-1.416-0.444-1.883-1.821-2.184-1.706c-0.649,0.248-0.807,0.846-0.522,1.396
					c0.406,0.782,1.362,1.513,1.362,1.513c-0.614-0.224-3.182-1.001-4.092-1.116c-0.787-0.099-3.058,1.25-3.33,1.404
					c-0.339,0.191-0.82,0.519-0.663,0.842c0.265,0.544,0.908,0.535,1.396,0.392c0.543-0.159,1.773-1.037,2.216-0.92
					c0.258,0.068,1.833,0.538,1.956,0.587c0,0-1.939,0.753-2.773,1.048c-0.963,0.341-2.98,1.169-2.98,1.169
					c-1.585,0.997,0.378,1.619,0.378,1.619c-0.118,0.099-0.514,0.452-0.39,0.759c0.23,0.57,1.055,0.571,1.26,0.562
					c0.633-0.026,2.582-0.655,2.634-0.65c0-0.001,2.824,0.088,2.824,0.088c-0.849,0.659-1.346,1.024-2.403,1.751
					c-0.177,0.122-1.312,0.823-1.393,0.998c-0.098,0.209-0.012,0.398,0.179,0.492c0.398,0.195,0.888,0.181,1.339,0.03
					c0.218-0.073,1.083-0.471,1.549-0.744c1.833-1.072,2.86-1.408,4.534-0.19c2.411,1.755,5.067-1.835,5.067-1.835
					S374.502,294.482,373.705,292.191z"/>
				<path style="opacity:0.3;" d="M365.478,289.324l1.291,0.469C366.768,289.793,366.915,289.493,365.478,289.324z"/>
				<path style="opacity:0.3;" d="M357.586,294.349c0,0,2.647-0.929,3.252-1.093c0.605-0.164,3.579-0.114,3.338-0.763
					C364.176,292.493,363.28,291.712,357.586,294.349z"/>
				<path style="opacity:0.3;" d="M362.961,290.514c0,0,1.489-0.216,1.132-0.365C363.735,290,363.253,290.401,362.961,290.514z"/>
			</g>
			<g>
				<path style="fill:#F4B799;" d="M329.588,250.566c1.624-2.051,4.603-2.398,6.654-0.775c2.052,1.624,2.398,4.603,0.774,6.654
					c-0.255,0.322-20.584,21.543-20.584,21.543c-1.383,1.688-3.868,1.963-5.586,0.604c-1.717-1.36-2.02-3.841-0.696-5.576
					L329.588,250.566z"/>
				<path style="fill:#F4B799;" d="M310.294,277.989c-1.405-1.67-1.219-4.163,0.433-5.602c1.652-1.439,4.208-1.321,5.669,0.3l0,0
					c0,0,5.593,4.579,19.055,21.933l-3.587,3.124c0,0-15.437-11.42-21.383-19.549C310.443,278.14,310.294,277.989,310.294,277.989z"
					/>
				<g>
					<path style="fill:#FFCE43;" d="M315.823,264.106l12.633-14.56c2.122-2.647,6.002-3.087,8.664-0.975
						c2.671,2.119,3.12,6.015,1.002,8.686c-0.187,0.235-6.628,6.961-13.786,14.422C322.14,270.035,318.536,267.156,315.823,264.106z
						"/>
				</g>
			</g>
			<g>
				<path style="fill:#F4B799;" d="M334.509,287.979c0,0,0.624-2.018-0.303-2.592c-0.882-0.546-1.501,3.249-1.501,3.249
					L334.509,287.979z"/>
				<g>
					<path style="fill:#F4B799;" d="M341.874,291.272c-0.102-0.074-3.097-1.582-3.535-1.678c-0.259-0.057-2.464-0.28-2.476-0.291
						l1.664-0.485c0.691-0.202,1.966,0.871,2.932,0.616c0.884-0.233,0.808-0.879,0.478-1.009c-2.263-0.892-2.821-1.381-3.623-1.307
						c-1.318,0.122-2.027,0.379-2.54,0.462c-1.07,0.173-1.465,0.006-1.909,0.741c-0.035,0.057-1.288,2.325-2.043,7.063
						c-0.354,2.22,2.137,2.896,2.137,2.896c2.094,0.543,2.035-1.807,2.865-2.551c0.35-0.314,1.931,0.99,2.45,1.286
						c0.518,0.296,1.238,0.528,1.516,0.361c0.639-0.385,0.371-0.676,0.069-0.916c-0.468-0.371-3.712-2.655-3.712-2.655
						c0.019-0.125,0.053-0.219,0.073-0.339c0,0,1.654,0.541,2.436,0.894c0.714,0.322,1.967,0.886,2.598,0.496
						c0.58-0.358,0.308-0.826,0.107-1.012c-0.371-0.344-4.865-2.356-4.865-2.356s0.668-0.486,1.59-0.271
						c0.628,0.147,1.641,0.51,1.96,0.669c0.429,0.214,1.457,0.696,1.868,0.197C342.202,291.734,342.075,291.417,341.874,291.272z"/>
					<path style="opacity:0.3;" d="M335.991,295.683c0,0-0.802-0.566-0.956-0.607C334.887,295.037,334.786,295.241,335.991,295.683z
						"/>
					<path style="opacity:0.3;" d="M335.404,296.23c0,0-1.302-0.187-1.451-0.329C333.804,295.76,333.248,296.41,335.404,296.23z"/>
					<path style="opacity:0.3;" d="M336.146,293.807c0,0-1.614-0.777-1.511-1.06c0.141-0.385,1.184,0.438,1.583,0.722
						L336.146,293.807z"/>
					<path style="opacity:0.3;" d="M336.495,291.49c0,0-1.809-0.348-1.751-0.781C334.8,290.276,336.495,291.49,336.495,291.49z"/>
					<path style="opacity:0.3;" d="M335.863,289.303c0,0-1.355-0.303-1.45-0.561C334.318,288.485,334.936,288.704,335.863,289.303z"
						/>
				</g>
			</g>
			<path style="fill:#F4B799;" d="M360.764,222.836c0.22,1.688,1.766,2.879,3.455,2.659c1.688-0.22,2.879-1.766,2.659-3.455
				c-0.22-1.688-1.767-2.879-3.455-2.659C361.735,219.601,360.544,221.148,360.764,222.836z"/>
			<path style="opacity:0.6;" d="M362.641,222.63c0.02,0.819,0.701,1.466,1.52,1.446c0.819-0.02,1.466-0.701,1.446-1.52
				c-0.02-0.819-0.701-1.466-1.519-1.446C363.267,221.131,362.62,221.812,362.641,222.63z"/>
			<path style="fill:#F4B799;" d="M344.104,208.822c5.695-6.658,16.611-3.915,18.68,4.599c0.928,3.819,1.556,8.584,0.817,13.372
				c-1.667,10.792-8.478,15.347-16.107,11.79c-7.629-3.557-8.35-18.884-5.84-25.595C342.228,211.45,343.061,210.04,344.104,208.822z
				"/>
			<path style="fill:#502F26;" d="M363.792,219.358c0,0-1.14-0.114-2.161,1.591c0,0-1.956-12.838-7.027-12.415
				c0,0-6.676,0.271-13.504,3.542c-5.864,2.809-5.141-10.042,5.375-10.426c12.195-0.446,10.837,0.797,10.837,0.797
				S369.004,198.557,363.792,219.358z"/>
			<path style="fill:#502F26;" d="M358.889,210.637c0,0,1.111-7.045-1.071-9.856c-2.182-2.811-3.743-2.507-5.085-1.178
				c0,0-2.691-2.856-4.471-0.205c-1.78,2.651-2.974,0.675-4.012-0.012c-1.038-0.687-3.967-0.871-3.131,1.944
				c0,0-5.828-3.464-7.38,0.206c-1.552,3.67,3.082,5.158,3.082,5.158s-2.753,9.109,5.314,5.299
				C351.906,207.381,358.889,210.637,358.889,210.637z"/>
		</g>
	</g>
	<g>
		<g>
			<g>
				<path style="fill:#484867;" d="M169.757,85.133c-0.316-0.599-0.611-1.211-0.876-1.818l0.458-0.2
					c0.26,0.597,0.549,1.197,0.86,1.785L169.757,85.133z"/>
			</g>
			<g>
				<path style="fill:#484867;" d="M375.911,136.01l-2.385-3.16l0.398-0.301l2.385,3.16L375.911,136.01z M371.142,129.69
					l-2.385-3.16l0.398-0.301l2.385,3.16L371.142,129.69z M366.372,123.37l-2.385-3.162l0.4-0.299l2.383,3.16L366.372,123.37z
					 M361.596,117.057c-0.8-1.046-1.607-2.088-2.428-3.12l0.391-0.312c0.822,1.034,1.632,2.079,2.434,3.127L361.596,117.057z
					 M356.665,110.88c-0.901-1.064-1.756-2.032-2.612-2.96l0.367-0.339c0.861,0.933,1.721,1.906,2.626,2.976L356.665,110.88z
					 M237.58,110.246c-0.205,0-0.411-0.002-0.616-0.005l0.008-0.5c1.284,0.023,2.595-0.026,3.93-0.142l0.043,0.498
					C239.806,110.196,238.674,110.246,237.58,110.246z M232.99,109.939c-1.342-0.185-2.656-0.458-3.907-0.812l0.137-0.481
					c1.229,0.348,2.52,0.616,3.839,0.798L232.99,109.939z M244.889,109.568l-0.088-0.492c1.269-0.228,2.562-0.516,3.842-0.855
					l0.129,0.483C247.478,109.047,246.171,109.337,244.889,109.568z M225.334,107.75c-0.904-0.415-1.788-0.889-2.626-1.407
					c-0.29-0.179-0.574-0.367-0.853-0.563l0.287-0.409c0.271,0.19,0.547,0.373,0.829,0.546c0.821,0.508,1.687,0.972,2.573,1.379
					L225.334,107.75z M252.576,107.542l-0.164-0.473c0.269-0.093,0.536-0.188,0.8-0.284c0.936-0.34,1.906-0.717,2.886-1.12
					l0.189,0.462c-0.984,0.406-1.962,0.785-2.904,1.127C253.116,107.353,252.847,107.449,252.576,107.542z M351.301,105.095
					c-0.803-0.779-1.618-1.527-2.422-2.224c-0.165-0.143-0.33-0.285-0.496-0.425l0.322-0.382c0.168,0.142,0.335,0.285,0.501,0.429
					c0.812,0.703,1.633,1.457,2.442,2.242L351.301,105.095z M259.925,104.539l-0.209-0.454c1.105-0.509,2.271-1.067,3.565-1.706
					l0.221,0.448C262.204,103.469,261.034,104.029,259.925,104.539z M208.795,104.092c-0.601,0-1.202-0.006-1.802-0.02l0.011-0.5
					c1.314,0.029,2.63,0.025,3.947-0.007l0.012,0.5C210.239,104.082,209.517,104.092,208.795,104.092z M214.926,103.888
					l-0.031-0.499c1.241-0.078,2.513-0.178,3.887-0.306c-0.874-0.947-1.672-1.994-2.373-3.113l0.424-0.266
					c0.699,1.118,1.498,2.162,2.374,3.101l-0.366,0.341c0,0,0,0-0.001,0l0.04,0.43C217.481,103.706,216.188,103.809,214.926,103.888
					z M203.025,103.876c-1.347-0.104-2.676-0.25-3.95-0.432l0.07-0.495c1.265,0.181,2.583,0.325,3.919,0.429L203.025,103.876z
					 M222.823,103.159l-0.058-0.497c1.167-0.136,2.331-0.282,3.492-0.433l0.431-0.057l0.066,0.496l-0.432,0.057
					C225.158,102.876,223.992,103.022,222.823,103.159z M195.162,102.742c-0.404-0.087-0.807-0.18-1.209-0.277
					c-0.885-0.215-1.774-0.46-2.641-0.728l0.147-0.478c0.858,0.265,1.736,0.507,2.612,0.719c0.398,0.097,0.797,0.188,1.197,0.275
					L195.162,102.742z M230.68,102.076l-0.086-0.492c1.42-0.248,2.68-0.518,3.85-0.826l0.127,0.483
					C233.387,101.553,232.114,101.826,230.68,102.076z M267.039,101.043l-0.228-0.445l3.523-1.807l0.228,0.445L267.039,101.043z
					 M187.565,100.392c-1.232-0.506-2.445-1.073-3.607-1.685l0.232-0.442c1.148,0.604,2.348,1.164,3.565,1.664L187.565,100.392z
					 M345.284,100.017c-1.053-0.764-2.152-1.504-3.27-2.196l0.264-0.425c1.127,0.699,2.237,1.445,3.299,2.217L345.284,100.017z
					 M238.358,99.994l-0.189-0.463c1.259-0.515,2.428-1.116,3.474-1.787l0.269,0.421C240.841,98.852,239.646,99.468,238.358,99.994z
					 M274.093,97.455l-0.222-0.448c1.31-0.648,2.479-1.208,3.576-1.713l0.209,0.454C276.565,96.25,275.399,96.809,274.093,97.455z
					 M180.529,96.681c-1.121-0.743-2.198-1.54-3.199-2.372l0.319-0.385c0.988,0.82,2.05,1.608,3.156,2.34L180.529,96.681z
					 M214.606,96.399c-0.496-1.256-0.87-2.549-1.112-3.843l0.491-0.092c0.236,1.262,0.601,2.524,1.085,3.751L214.606,96.399z
					 M338.596,95.864c-1.148-0.605-2.342-1.183-3.548-1.716l0.203-0.457c1.216,0.538,2.42,1.121,3.577,1.731L338.596,95.864z
					 M245.005,95.609l-0.367-0.34c0.887-0.956,1.645-2.021,2.252-3.164l0.441,0.234C246.704,93.521,245.921,94.621,245.005,95.609z
					 M281.272,94.163l-0.189-0.463l0.679-0.277c0.989-0.397,2.009-0.78,3.032-1.138l0.166,0.472
					c-1.017,0.355-2.029,0.736-3.012,1.13L281.272,94.163z M331.392,92.673c-1.218-0.446-2.478-0.861-3.743-1.234l0.141-0.479
					c1.276,0.376,2.547,0.795,3.774,1.244L331.392,92.673z M174.419,91.586c-0.924-0.975-1.782-2.007-2.55-3.066l0.405-0.294
					c0.755,1.042,1.599,2.057,2.508,3.016L174.419,91.586z M288.717,91.562l-0.139-0.48c1.267-0.364,2.561-0.698,3.847-0.992
					l0.111,0.487C291.259,90.869,289.974,91.201,288.717,91.562z M323.833,90.443c-1.265-0.289-2.566-0.546-3.869-0.763l0.082-0.493
					c1.313,0.218,2.624,0.477,3.898,0.769L323.833,90.443z M296.404,89.803l-0.084-0.493c1.304-0.224,2.627-0.415,3.932-0.566
					l0.059,0.497C299.013,89.391,297.699,89.579,296.404,89.803z M316.055,89.148c-1.296-0.139-2.619-0.242-3.933-0.307l0.025-0.499
					c1.322,0.065,2.654,0.169,3.96,0.309L316.055,89.148z M304.237,88.891l-0.031-0.499c1.32-0.081,2.656-0.127,3.971-0.135
					l0.004,0.5C306.874,88.765,305.548,88.81,304.237,88.891z M213.673,88.58l-0.5-0.015c0.041-1.378,0.246-2.711,0.608-3.964
					l0.48,0.139C213.911,85.953,213.713,87.245,213.673,88.58z M248.696,88.562l-0.49-0.098c0.143-0.722,0.216-1.443,0.216-2.144
					c0-0.577-0.05-1.149-0.146-1.699l0.492-0.087c0.103,0.579,0.154,1.179,0.154,1.786
					C248.922,87.054,248.846,87.808,248.696,88.562z M215.854,81.21l-0.421-0.27c0.445-0.694,0.958-1.353,1.525-1.956
					c0.349-0.373,0.725-0.733,1.116-1.07l0.326,0.379c-0.377,0.325-0.74,0.672-1.077,1.033
					C216.776,79.908,216.282,80.542,215.854,81.21z M246.82,81.087c-0.688-1.002-1.604-1.92-2.723-2.726l0.293-0.405
					c1.164,0.84,2.12,1.799,2.842,2.848L246.82,81.087z M240.691,76.474c-0.705-0.3-1.462-0.579-2.25-0.829
					c-0.48-0.153-0.973-0.294-1.464-0.421l0.125-0.484c0.5,0.129,1.001,0.274,1.49,0.429c0.803,0.255,1.575,0.54,2.294,0.846
					L240.691,76.474z M221.653,76.176l-0.217-0.45c1.167-0.563,2.441-1.005,3.784-1.315l0.113,0.487
					C224.026,75.2,222.788,75.63,221.653,76.176z M233.122,74.514c-1.318-0.147-2.629-0.191-3.915-0.135l-0.021-0.499
					c1.307-0.06,2.646-0.012,3.991,0.137L233.122,74.514z"/>
			</g>
			<g>
				
					<rect x="378.907" y="138.897" transform="matrix(0.7983 -0.6023 0.6023 0.7983 -7.7725 256.5876)" style="fill:#484867;" width="0.5" height="2"/>
			</g>
		</g>
		<g>
			<g>
				<polygon style="fill:#EA9918;" points="174.826,75.776 174.289,91.779 121.774,66.157 				"/>
				<polygon style="fill:#FFCE43;" points="188.463,66.694 174.826,75.776 121.774,66.157 				"/>
				<polygon style="fill:#FFCE43;" points="170,78.706 121.774,66.157 155.642,88.312 				"/>
				<polygon style="fill:#FFBB4D;" points="174.289,91.779 170,78.706 160.49,85.074 				"/>
			</g>
		</g>
	</g>
	<g>
		<polygon style="opacity:0.5;" points="196.235,347.753 188.398,346.341 182.246,335.004 168.097,342.682 163.053,341.773 
			161.066,346.497 146.916,354.175 153.068,365.512 149.981,372.852 167.26,404.694 213.513,379.594 		"/>
		<g>
			
				<rect x="148.809" y="356.476" transform="matrix(0.8789 -0.477 0.477 0.8789 -155.1619 128.2932)" style="fill:#E5AE13;" width="52.625" height="26.594"/>
			<polygon style="fill:#FFCE43;" points="145.653,370.636 158.724,339.556 191.906,345.536 			"/>
			<g>
				
					<rect x="151.67" y="339.45" transform="matrix(0.8789 -0.4769 0.4769 0.8789 -152.6199 125.9447)" style="fill:#FFFFFF;" width="40.196" height="48.288"/>
				<g>
					
						<rect x="147.736" y="350.896" transform="matrix(0.8789 -0.4769 0.4769 0.8789 -147.7581 121.3058)" style="fill:#EDEDED;" width="34.66" height="1.614"/>
					
						<rect x="149.294" y="353.767" transform="matrix(0.8789 -0.477 0.477 0.8789 -148.9413 122.3998)" style="fill:#EDEDED;" width="34.66" height="1.615"/>
					
						<rect x="150.852" y="356.638" transform="matrix(0.8789 -0.477 0.477 0.8789 -150.1221 123.4905)" style="fill:#EDEDED;" width="34.66" height="1.614"/>
					
						<rect x="152.41" y="359.509" transform="matrix(0.8789 -0.477 0.477 0.8789 -151.3028 124.5812)" style="fill:#EDEDED;" width="34.66" height="1.615"/>
					
						<rect x="153.968" y="362.381" transform="matrix(0.8789 -0.4769 0.4769 0.8789 -152.4833 125.6715)" style="fill:#EDEDED;" width="34.66" height="1.615"/>
					
						<rect x="156.084" y="367.27" transform="matrix(0.8789 -0.477 0.477 0.8789 -155.0312 125.4135)" style="fill:#EDEDED;" width="26.862" height="1.615"/>
				</g>
			</g>
			<polygon style="fill:#FFCE43;" points="145.653,370.636 162.931,402.477 209.185,377.378 191.906,345.536 179.013,376.945 			"/>
			<polygon style="fill:#FFCE43;" points="162.931,402.477 176.003,371.397 209.185,377.378 			"/>
			<polygon style="opacity:0.5;" points="162.931,402.477 172.875,375.784 174.07,376.01 			"/>
			<polygon style="opacity:0.5;" points="209.185,377.378 180.926,372.285 181.386,371.166 			"/>
		</g>
	</g>
	<g>
		<path style="opacity:0.5;" d="M163.274,195.216v-40.15c0-6.39,3.26-12.03,8.21-15.32c4.86,3.74,8.7,8.92,10.8,15.16
			C187.814,171.336,179.334,189.106,163.274,195.216z"/>
		<g>
			
				<ellipse transform="matrix(0.1645 -0.9864 0.9864 0.1645 -34.8748 283.6664)" style="fill:#0AAD60;" cx="150.016" cy="162.42" rx="32.152" ry="32.152"/>
			
				<ellipse transform="matrix(0.9145 -0.4046 0.4046 0.9145 -53.0616 74.9722)" style="fill:#0AAD60;" cx="150.869" cy="163.041" rx="28.45" ry="28.45"/>
			<path style="opacity:0.2;fill:#FFFFFF;" d="M158.606,188.276c-14.698,4.954-30.605-2.784-35.84-17.306
				c0.06,0.192,0.114,0.384,0.178,0.576c5.019,14.889,21.158,22.891,36.047,17.872c14.889-5.019,22.891-21.158,17.872-36.047
				c-0.064-0.191-0.139-0.377-0.207-0.566C181.281,167.532,173.304,183.322,158.606,188.276z"/>
			<path style="opacity:0.5;" d="M141.731,137.842c14.49-4.884,30.16,2.566,35.616,16.692c-0.116-0.401-0.237-0.801-0.371-1.201
				c-5.019-14.889-21.158-22.891-36.047-17.872c-14.889,5.019-22.891,21.158-17.872,36.047c0.134,0.399,0.281,0.791,0.431,1.18
				C119.278,158.141,127.241,142.726,141.731,137.842z"/>
			<g>
				<g style="opacity:0.5;">
					<polygon points="150.172,178.576 135.417,166.201 138.3,162.763 149.09,171.813 164.401,147.142 168.214,149.507 					"/>
				</g>
				<g>
					<polygon style="fill:#FFFFFF;" points="149.516,176.968 134.76,164.593 137.643,161.155 148.434,170.205 163.745,145.533 
						167.557,147.899 					"/>
				</g>
			</g>
		</g>
	</g>
</g>
</svg>
